<?xml version="1.0" standalone="no"?><!DOCTYPE svg PUBLIC "-//W3C//DTD SVG 1.1//EN" "http://www.w3.org/Graphics/SVG/1.1/DTD/svg11.dtd"><svg height="1024" node-id="1" sillyvg="true" template-height="1024" template-width="1024" version="1.1" viewBox="0 0 1024 1024" width="1024" xmlns="http://www.w3.org/2000/svg" xmlns:xlink="http://www.w3.org/1999/xlink"><defs node-id="163"><clipPath id="clip-宠物" node-id="21"><path d="M 0.00 0.00 L 1024.00 0.00 L 1024.00 1024.00 L 0.00 1024.00 Z" fill="#000000" fill-rule="nonzero" node-id="166" stroke="none" target-height="1024" target-width="1024" target-x="0" target-y="0"></path></clipPath><clipPath id="clip-path" node-id="3"><path d="M 978.60 457.10 L 912.30 629.40 L 935.30 749.80 L 634.30 685.80 L 724.80 448.10 L 889.30 480.70 L 900.30 544.50 L 956.50 449.20 Z" fill="#000000" fill-rule="nonzero" id="路径_126" node-id="4" stroke="none" target-height="301.69998" target-width="344.3" target-x="634.3" target-y="448.1"></path></clipPath><clipPath id="clip-path-2" node-id="5"><path d="M 720.90 456.60 L 721.60 454.20 L 722.70 451.80 L 724.40 449.50 L 726.80 447.30 L 729.30 445.50 L 735.90 442.10 L 740.10 440.60 L 745.70 439.00 L 752.20 437.60 L 759.50 436.60 L 766.80 436.00 L 783.40 435.80 L 800.90 437.10 L 810.30 438.40 L 819.70 440.10 L 836.80 444.30 L 852.40 449.60 L 859.20 452.40 L 865.90 455.70 L 871.60 458.90 L 876.40 462.20 L 882.80 467.60 L 887.00 472.70 L 888.60 475.50 L 889.50 478.20 L 889.90 480.80 L 889.70 483.40 L 889.10 485.90 L 887.90 488.20 L 886.20 490.50 L 883.90 492.70 L 878.30 496.30 L 874.70 497.90 L 864.90 501.10 L 858.40 502.40 L 851.10 503.40 L 835.90 504.30 L 818.70 503.80 L 800.30 501.60 L 791.00 499.90 L 773.90 495.80 L 758.20 490.50 L 751.40 487.60 L 744.80 484.40 L 739.10 481.10 L 734.20 477.90 L 730.70 475.10 L 725.40 469.80 L 723.60 467.30 L 722.10 464.50 L 721.10 461.80 L 720.80 459.20 L 720.90 456.60 Z" fill="#000000" fill-rule="nonzero" id="椭圆_16" node-id="6" stroke="none" target-height="68.5" target-width="169.10004" target-x="720.8" target-y="435.8"></path></clipPath><clipPath id="clip-path-3" node-id="7"><path d="M 715.50 500.80 L 610.90 629.50 L 828.90 638.20 L 841.20 651.60 L 848.40 691.60 L 838.10 706.40 L 767.30 764.90 L 601.20 765.10 L 540.20 764.90 L 534.70 764.60 L 528.90 763.80 L 522.70 762.50 L 516.60 760.70 L 510.50 758.40 L 504.30 755.50 L 498.30 752.10 L 492.50 748.00 L 486.90 743.40 L 483.00 739.50 L 479.30 735.30 L 475.80 730.70 L 472.60 725.60 L 469.70 720.40 L 467.20 714.70 L 465.10 708.50 L 463.20 701.80 L 462.10 693.10 L 462.20 688.20 L 462.60 683.10 L 463.60 676.40 L 465.10 669.30 L 467.20 661.90 L 472.50 647.10 L 480.70 628.60 L 491.60 607.70 L 502.30 589.70 L 516.60 568.00 L 635.00 479.80 Z" fill="#000000" fill-rule="nonzero" id="路径_435" node-id="8" stroke="none" target-height="285.3" target-width="386.30002" target-x="462.1" target-y="479.8"></path></clipPath><clipPath id="clip-path-4" node-id="9"><path d="M 749.10 749.10 L 751.70 754.10 L 753.90 756.90 L 757.00 759.80 L 762.20 763.00 L 765.60 764.30 L 769.20 765.30 L 773.50 765.80 L 791.70 765.80 L 805.60 766.60 L 812.50 767.50 L 825.20 770.10 L 830.40 771.80 L 836.40 774.70 L 838.50 776.30 L 842.30 779.90 L 846.40 784.70 L 850.20 790.00 L 853.80 795.80 L 857.00 801.90 L 859.50 807.90 L 860.80 812.00 L 861.90 819.20 L 855.30 819.30 L 844.40 820.80 L 838.00 822.10 L 826.20 825.80 L 816.80 830.10 L 812.30 832.80 L 808.00 835.90 L 803.90 839.30 L 801.10 842.20 L 796.30 848.70 L 794.20 852.50 L 792.40 856.30 L 791.10 860.50 L 790.00 865.10 L 789.30 870.10 L 789.10 875.10 L 789.30 880.50 L 790.10 886.50 L 791.30 893.00 L 966.40 893.00 L 917.90 642.40 L 817.30 637.80 L 825.30 644.00 L 831.90 650.70 L 835.70 656.10 L 838.40 662.00 L 839.00 665.00 L 839.10 668.20 L 837.80 679.60 L 836.90 683.20 L 834.20 689.90 L 832.30 692.90 L 829.80 695.80 L 826.60 698.50 L 823.10 700.80 L 818.60 703.00 L 813.00 705.00 L 807.20 706.40 L 801.10 707.20 L 794.80 707.60 L 770.60 707.60 L 765.50 707.90 L 759.40 709.10 L 756.90 710.00 L 754.70 711.30 L 752.90 713.00 L 751.50 715.00 L 749.80 718.50 L 747.80 725.40 L 747.00 730.50 L 746.80 735.30 L 747.00 739.80 L 747.60 743.50 L 749.10 749.10 Z" fill="#000000" fill-rule="nonzero" id="路径_439" node-id="10" stroke="none" target-height="255.20001" target-width="219.60004" target-x="746.8" target-y="637.8"></path></clipPath><clipPath id="clip-path-5" node-id="11"><path d="M 736.10 432.10 L 521.70 432.10 L 488.90 476.70 L 481.80 488.80 L 478.80 494.80 L 473.50 507.80 L 469.80 520.00 L 467.20 533.20 L 466.30 540.40 L 466.00 547.60 L 466.10 555.10 L 466.80 562.80 L 468.30 572.00 L 470.40 581.40 L 473.10 591.00 L 476.30 600.50 L 480.20 610.50 L 484.80 621.10 L 489.70 631.50 L 502.20 654.60 L 512.90 672.50 L 525.60 692.80 L 539.40 713.60 L 555.50 737.20 L 561.10 743.60 L 565.70 749.50 L 569.50 754.90 L 572.90 760.60 L 577.60 769.90 L 580.10 776.20 L 582.30 784.20 L 720.10 808.40 L 747.70 763.50 L 573.40 547.70 L 662.50 521.30 L 705.30 509.40 L 708.50 508.40 L 711.90 506.80 L 715.70 504.60 L 722.60 498.80 L 729.30 491.10 L 732.30 486.70 L 735.00 482.00 L 737.40 477.00 L 739.30 471.80 L 740.70 466.40 L 741.70 460.90 L 742.00 455.20 L 741.60 449.40 L 741.00 445.10 L 739.80 440.80 L 738.20 436.50 L 736.10 432.10 Z" fill="#000000" fill-rule="nonzero" id="路径_446" node-id="12" stroke="none" target-height="376.30002" target-width="281.7" target-x="466" target-y="432.1"></path></clipPath><clipPath id="clip-path-6" node-id="13"><path d="M 486.20 893.30 L 861.70 893.30 L 743.20 757.80 L 737.20 767.60 L 730.40 776.50 L 726.20 781.00 L 721.40 785.20 L 718.00 787.60 L 714.50 789.60 L 707.90 792.10 L 702.00 792.80 L 698.80 792.60 L 692.60 791.40 L 686.80 789.90 L 681.30 787.90 L 676.10 785.60 L 671.10 782.80 L 666.30 779.70 L 661.70 776.20 L 657.40 772.40 L 651.90 766.90 L 646.80 760.90 L 626.90 733.30 L 622.00 727.60 L 618.40 724.10 L 614.70 721.10 L 610.90 718.60 L 604.50 715.90 L 597.20 714.50 L 592.00 714.30 L 586.50 714.60 L 581.00 715.30 L 575.70 716.60 L 569.10 719.00 L 563.70 722.40 L 561.60 724.40 L 559.90 726.60 L 558.70 729.00 L 558.00 731.70 L 557.90 734.70 L 558.20 736.80 L 560.10 741.90 L 576.80 767.70 L 578.40 771.10 L 579.60 774.60 L 580.20 777.40 L 580.30 780.90 L 580.00 784.50 L 579.10 788.40 L 576.80 793.30 L 575.10 795.70 L 573.00 797.70 L 570.60 799.60 L 567.60 801.20 L 549.70 808.50 L 540.60 811.60 L 532.30 812.70 L 526.00 813.90 L 520.50 815.40 L 515.60 817.20 L 510.80 819.40 L 506.50 821.80 L 502.80 824.50 L 496.50 830.40 L 493.80 833.60 L 489.70 840.40 L 487.50 845.20 L 485.90 850.10 L 484.70 855.00 L 483.40 864.60 L 483.50 875.80 L 484.70 886.60 L 486.20 893.30 Z" fill="#000000" fill-rule="nonzero" id="路径_450" node-id="14" stroke="none" target-height="179" target-width="378.30002" target-x="483.4" target-y="714.3"></path></clipPath><clipPath id="clip-path-7" node-id="15"><path d="M 554.70 248.00 L 548.00 255.40 L 541.80 263.10 L 535.50 271.80 L 530.40 280.70 L 524.70 294.30 L 521.60 302.70 L 518.50 312.60 L 515.00 326.50 L 512.50 341.50 L 511.90 349.00 L 511.80 356.60 L 426.40 333.20 L 430.20 344.10 L 433.70 355.70 L 437.10 369.30 L 439.60 383.70 L 440.20 390.80 L 440.20 397.40 L 439.80 426.70 L 439.30 433.50 L 438.40 439.60 L 437.40 443.60 L 436.10 447.30 L 434.40 450.80 L 432.30 454.00 L 429.60 457.00 L 426.40 459.70 L 480.80 457.90 L 551.80 465.10 L 563.10 471.70 L 571.80 475.50 L 576.30 477.10 L 581.00 478.10 L 585.30 478.50 L 588.20 478.30 L 590.70 477.70 L 593.10 476.80 L 603.70 470.90 L 618.00 462.80 L 634.00 453.10 L 649.70 442.50 L 656.90 437.00 L 663.00 431.80 L 737.30 431.80 L 711.90 379.70 L 702.80 362.10 L 703.30 358.60 L 703.20 353.40 L 702.10 345.80 L 699.50 336.50 L 694.80 326.20 L 684.50 308.80 L 675.00 294.80 L 663.90 280.50 L 658.00 273.80 L 651.90 267.50 L 645.70 261.90 L 637.70 255.50 L 629.70 250.00 L 621.50 245.10 L 614.00 241.20 L 604.20 237.10 L 595.90 234.90 L 592.40 234.50 L 589.50 234.60 L 590.40 241.60 L 590.60 245.50 L 590.20 253.70 L 589.50 257.60 L 588.40 261.20 L 586.80 264.30 L 579.60 276.10 L 577.20 279.10 L 574.70 281.80 L 572.80 283.30 L 568.60 285.30 L 566.40 285.80 L 564.00 285.80 L 561.30 285.20 L 559.30 284.30 L 557.60 282.90 L 556.20 281.10 L 554.30 276.60 L 553.70 273.80 L 553.10 269.60 L 553.10 260.70 L 554.70 248.00 Z" fill="#000000" fill-rule="nonzero" id="路径_425" node-id="16" stroke="none" target-height="244" target-width="310.9" target-x="426.4" target-y="234.5"></path></clipPath><clipPath id="clip-path-8" node-id="17"><path d="M 187.50 847.50 L 144.10 847.50 L 147.70 841.60 L 150.00 836.90 L 152.20 831.60 L 155.50 820.70 L 156.90 810.60 L 157.00 805.40 L 156.60 799.90 L 155.70 794.20 L 154.60 790.10 L 151.10 781.60 L 148.60 777.10 L 145.20 772.10 L 141.50 767.70 L 137.50 763.90 L 133.20 760.60 L 128.60 757.70 L 123.80 755.30 L 118.90 753.30 L 113.80 751.90 L 108.60 750.90 L 103.30 750.40 L 98.00 750.30 L 92.60 750.70 L 87.20 751.60 L 82.00 752.90 L 76.80 754.60 L 71.70 756.80 L 66.80 759.40 L 62.10 762.50 L 57.70 765.90 L 53.40 769.80 L 50.20 773.40 L 47.50 777.30 L 45.20 781.30 L 43.40 785.50 L 40.90 794.50 L 39.80 803.90 L 39.70 810.30 L 40.10 816.70 L 41.00 823.10 L 43.90 835.40 L 45.70 841.10 L 50.10 851.50 L 54.90 860.00 L 59.40 865.40 L 70.40 875.10 L 76.40 879.70 L 82.90 883.90 L 87.40 886.40 L 92.20 888.60 L 97.30 890.40 L 102.50 891.80 L 108.10 892.70 L 114.00 893.00 L 398.70 893.00 L 397.30 889.30 L 394.50 883.80 L 392.30 880.70 L 389.60 877.80 L 386.30 875.10 L 381.10 872.20 L 377.90 871.20 L 374.60 870.60 L 370.80 870.30 L 366.50 870.60 L 368.50 861.00 L 370.60 845.20 L 371.40 835.00 L 371.90 824.20 L 371.80 812.00 L 371.50 803.70 L 369.70 786.10 L 368.20 777.20 L 366.30 768.10 L 363.80 758.90 L 368.00 721.10 L 369.10 707.00 L 369.20 696.10 L 379.20 762.40 L 400.20 893.00 L 465.70 893.00 L 463.30 888.90 L 458.70 882.80 L 455.40 879.30 L 451.70 876.00 L 447.40 872.90 L 440.70 869.50 L 436.90 868.20 L 433.00 867.40 L 428.80 866.90 L 424.20 866.90 L 421.90 838.20 L 415.80 771.00 L 386.30 458.20 L 402.10 454.30 L 417.80 449.80 L 433.30 444.80 L 436.80 443.20 L 439.60 441.30 L 441.90 439.20 L 443.70 436.70 L 445.10 434.00 L 446.00 431.20 L 446.50 428.20 L 446.40 422.30 L 445.80 419.40 L 443.80 414.20 L 442.40 411.80 L 438.90 408.10 L 436.90 406.90 L 434.80 406.10 L 432.50 405.80 L 371.30 407.20 L 368.50 402.40 L 366.00 399.00 L 363.10 395.50 L 356.50 389.50 L 349.90 385.30 L 346.20 383.70 L 342.20 382.40 L 337.70 381.60 L 330.80 381.40 L 326.90 381.80 L 322.80 382.70 L 317.40 384.30 L 312.90 386.20 L 309.20 388.20 L 305.70 390.70 L 302.80 393.20 L 298.40 398.60 L 295.50 404.20 L 294.00 408.50 L 293.20 412.50 L 292.80 416.40 L 292.50 430.50 L 291.90 439.80 L 290.30 450.90 L 289.10 456.80 L 287.50 462.70 L 285.40 468.50 L 280.80 478.50 L 279.10 483.20 L 277.00 493.00 L 276.30 502.40 L 276.70 511.30 L 278.00 518.60 L 279.80 523.20 L 273.80 533.30 L 264.30 547.60 L 252.10 564.60 L 215.80 613.00 L 202.90 632.30 L 193.40 649.40 L 189.20 658.30 L 185.30 667.70 L 181.70 677.60 L 177.60 691.00 L 174.30 703.70 L 171.70 715.70 L 169.60 727.90 L 168.10 739.80 L 167.30 751.40 L 167.10 763.00 L 167.40 774.70 L 168.40 786.50 L 170.40 800.30 L 174.20 815.60 L 179.40 830.60 L 181.80 836.30 L 187.50 847.50 Z" fill="#000000" fill-rule="nonzero" id="路径_409" node-id="18" stroke="none" target-height="511.6" target-width="426" target-x="39.7" target-y="381.4"></path></clipPath><clipPath id="clip-path-9" node-id="19"><path d="M 533.10 396.80 L 520.90 400.70 L 499.00 409.20 L 489.90 413.50 L 485.30 416.40 L 480.90 419.90 L 476.90 423.80 L 473.40 427.90 L 469.80 433.50 L 467.60 438.70 L 467.30 440.90 L 467.30 442.80 L 469.40 450.30 L 470.90 453.80 L 474.20 459.00 L 477.60 462.00 L 479.30 465.40 L 482.60 470.00 L 487.10 474.50 L 489.70 476.30 L 492.40 477.30 L 494.20 477.60 L 496.20 477.40 L 498.10 476.80 L 503.40 481.50 L 505.20 482.90 L 507.20 483.80 L 509.90 484.00 L 511.30 483.40 L 513.80 485.70 L 516.10 486.90 L 521.90 488.30 L 528.00 488.10 L 532.80 490.70 L 538.00 492.30 L 541.10 492.60 L 544.10 492.50 L 547.30 491.70 L 550.00 490.60 L 553.20 488.40 L 554.90 485.60 L 555.10 481.70 L 554.30 477.60 L 552.50 475.40 L 548.50 473.20 L 542.90 471.80 L 546.20 468.70 L 551.20 465.30 L 554.20 464.00 L 593.60 451.70 L 579.80 433.90 L 572.40 425.30 L 568.70 421.60 L 551.50 406.80 L 547.70 404.00 L 543.40 401.30 L 538.70 399.00 L 533.10 396.80 Z" fill="#000000" fill-rule="nonzero" id="路径_432" node-id="20" stroke="none" target-height="95.80002" target-width="126.29999" target-x="467.3" target-y="396.8"></path></clipPath></defs><g clip-path="url(#clip-宠物)" id="宠物" node-id="23"><path d="M 0.00 0.00 L 1024.00 0.00 L 1024.00 1024.00 L 0.00 1024.00 Z" fill="#ffffff" fill-rule="nonzero" node-id="198" stroke="none" target-height="1024" target-width="1024" target-x="0" target-y="0"></path><path d="M 185.00 187.00 L 915.00 187.00 L 915.00 934.00 L 185.00 934.00 Z" fill="#d9f9fa" fill-rule="nonzero" group-id="1" id="矩形_1" node-id="25" stroke="none" target-height="747" target-width="730" target-x="185" target-y="187"></path><path d="M 185.40 697.20 L 145.40 647.40 L 125.00 620.80 L 114.60 606.50 L 104.60 591.90 L 95.00 577.10 L 88.80 567.00 L 77.80 547.00 L 74.10 539.30 L 68.10 523.90 L 63.60 508.30 L 60.70 492.80 L 59.40 477.50 L 59.70 462.90 L 60.40 455.90 L 61.50 448.90 L 63.00 442.30 L 64.90 436.10 L 67.10 430.20 L 69.80 424.50 L 72.80 419.20 L 76.20 414.40 L 79.90 410.00 L 83.20 406.80 L 86.80 403.90 L 90.50 401.40 L 94.50 399.20 L 98.80 397.30 L 103.60 395.70 L 108.60 394.70 L 113.70 394.00 L 119.10 393.90 L 124.40 394.20 L 129.80 394.90 L 135.30 396.00 L 146.50 399.50 L 157.50 404.50 L 163.00 407.50 L 170.00 412.10 L 176.80 417.30 L 183.40 423.00 L 188.10 427.70 L 196.70 437.80 L 204.20 448.90 L 207.40 454.80 L 210.30 461.00 L 212.80 467.40 L 214.90 473.90 L 216.60 480.60 L 217.70 487.50 L 218.50 494.70 L 219.50 521.70 L 219.50 535.60 L 218.30 563.60 L 217.10 577.70 L 215.50 591.70 L 213.50 605.60 L 211.00 619.40 L 208.00 633.20 L 204.50 646.60 L 200.60 659.70 L 197.20 669.50 L 193.60 679.00 L 185.40 697.20 Z" fill="#a5c74e" fill-rule="nonzero" group-id="2,7,58" id="路径_64" node-id="28" stroke="#636689" stroke-linecap="butt" stroke-width="2" target-height="303.30002" target-width="160.1" target-x="59.4" target-y="393.9"></path><path d="M 96.40 400.30 L 103.50 408.90 L 109.10 416.60 L 115.10 425.40 L 127.10 445.90 L 137.80 467.20 L 143.00 478.70 L 148.30 491.70 L 153.70 506.20 L 158.70 520.80 L 163.50 536.90 L 168.30 554.70 L 174.40 582.10 L 177.20 597.10 L 182.00 628.90 L 183.80 645.50 L 185.30 663.20 L 186.50 681.80 L 187.20 700.10 L 187.50 719.30 L 187.30 739.60 L 186.60 761.00" fill="none" group-id="2,7,59" id="路径_65" node-id="29" stroke="#636689" stroke-linecap="butt" stroke-width="2" target-height="360.7" target-width="91.1" target-x="96.4" target-y="400.3"></path><path d="M 136.50 691.90 L 113.60 680.90 L 105.20 676.40 L 95.40 670.40 L 88.90 666.10 L 74.70 655.20 L 67.70 649.10 L 60.50 642.00 L 53.00 634.10 L 47.60 627.60 L 43.00 621.50 L 39.10 615.70 L 35.90 610.10 L 33.20 604.80 L 30.80 599.00 L 29.00 593.50 L 27.80 588.20 L 27.10 583.20 L 26.90 578.40 L 27.20 573.50 L 27.90 568.70 L 29.10 564.20 L 30.80 559.80 L 33.00 555.50 L 35.50 551.50 L 38.50 547.60 L 41.90 543.90 L 45.80 540.20 L 50.20 536.70 L 54.90 533.60 L 59.60 531.00 L 64.30 529.10 L 69.10 527.70 L 74.00 526.70 L 78.80 526.40 L 83.70 526.50 L 88.60 527.20 L 93.30 528.40 L 98.00 530.20 L 102.70 532.60 L 107.30 535.50 L 111.60 538.90 L 115.70 542.80 L 119.80 547.40 L 123.80 552.70 L 127.20 558.20 L 130.50 564.40 L 133.60 571.30 L 136.50 579.00 L 140.40 591.40 L 143.20 601.50 L 144.60 608.10 L 146.40 619.40 L 146.90 630.00 L 146.00 642.60 L 144.80 650.70 L 136.50 691.90 Z" fill="#c4de7b" fill-rule="nonzero" group-id="2,8,60" id="路径_64-2" node-id="31" stroke="#636689" stroke-linecap="butt" stroke-width="2.000237" target-height="165.5" target-width="119.99999" target-x="26.9" target-y="526.4"></path><path d="M 47.40 540.60 L 56.70 549.80 L 64.00 558.20 L 74.80 572.10 L 81.60 581.70 L 88.00 591.50 L 95.00 603.00 L 102.50 616.50 L 109.60 630.10 L 117.10 645.70 L 124.80 663.40 L 130.10 676.70 L 140.90 706.70 L 146.30 723.70 L 151.10 740.30 L 155.90 758.20 L 160.50 777.50 L 164.90 798.20" fill="none" group-id="2,8,61" id="路径_65-2" node-id="32" stroke="#636689" stroke-linecap="butt" stroke-width="2.000237" target-height="257.60004" target-width="117.49999" target-x="47.4" target-y="540.6"></path><path d="M 188.90 700.20 L 246.20 667.00 L 270.30 651.80 L 282.30 643.60 L 294.20 635.10 L 305.70 626.20 L 316.40 617.20 L 323.20 610.80 L 329.40 604.10 L 335.10 597.20 L 340.40 589.90 L 345.00 582.50 L 349.10 575.10 L 352.70 567.40 L 355.60 559.80 L 357.80 552.40 L 360.10 541.10 L 360.80 530.60 L 360.50 525.30 L 359.90 520.40 L 358.80 515.60 L 357.40 511.20 L 355.50 506.80 L 353.20 502.80 L 350.40 499.10 L 347.20 495.60 L 343.50 492.60 L 339.50 489.90 L 335.10 487.70 L 330.30 485.90 L 325.40 484.50 L 320.20 483.50 L 314.80 483.00 L 309.00 482.80 L 297.60 483.70 L 285.70 486.30 L 279.90 488.20 L 268.40 493.10 L 262.70 496.10 L 257.30 499.60 L 252.10 503.40 L 247.10 507.60 L 242.40 512.20 L 238.00 517.10 L 234.00 522.40 L 230.40 528.10 L 227.10 534.30 L 221.30 546.90 L 215.80 560.00 L 210.50 573.60 L 205.80 587.40 L 201.50 601.30 L 197.70 615.50 L 195.20 626.20 L 193.10 636.90 L 190.00 658.20 L 189.00 669.00 L 188.50 679.50 L 188.50 689.90 L 188.90 700.20 Z" fill="#c4de7b" fill-rule="nonzero" group-id="2,9,62" id="路径_64-3" node-id="34" stroke="#636689" stroke-linecap="butt" stroke-width="2" target-height="217.40002" target-width="172.29999" target-x="188.5" target-y="482.8"></path><path d="M 348.00 498.60 L 338.00 504.40 L 329.80 509.80 L 321.00 516.30 L 309.70 525.40 L 302.10 532.10 L 284.50 549.20 L 275.60 558.80 L 266.10 569.80 L 256.00 582.40 L 248.80 591.90 L 233.80 613.60 L 226.00 625.90 L 218.60 638.20 L 211.20 651.40 L 203.70 665.70 L 196.10 681.10 L 189.10 696.30 L 182.10 712.60 L 175.10 730.10 L 168.20 748.90" fill="none" group-id="2,9,63" id="路径_65-3" node-id="35" stroke="#636689" stroke-linecap="butt" stroke-width="2" target-height="250.30002" target-width="179.8" target-x="168.2" target-y="498.6"></path><path d="M 86.40 758.10 L 85.70 751.00 L 85.70 747.80 L 86.60 740.30 L 88.90 734.20 L 92.00 729.80 L 95.90 729.30 L 99.80 729.30 L 103.60 729.70 L 107.50 730.50 L 112.50 732.20 L 117.60 734.60 L 122.90 737.70 L 133.30 745.50 L 138.80 750.40 L 141.30 753.00 L 145.90 759.70 L 148.80 765.40 L 151.40 771.60 L 153.60 777.90 L 156.90 790.10 L 159.90 806.60 L 154.10 798.90 L 144.10 787.60 L 135.90 780.20 L 131.70 777.20 L 125.90 774.10 L 112.90 769.90 L 103.00 766.00 L 86.40 758.10 Z" fill="#c4de7b" fill-rule="nonzero" group-id="2,10,64" id="路径_396" node-id="37" stroke="#636689" stroke-linecap="butt" stroke-width="2" target-height="77.29999" target-width="74.2" target-x="85.7" target-y="729.3"></path><path d="M 104.60 746.50 L 110.90 748.50 L 120.70 753.00 L 126.20 756.30 L 132.20 760.50 L 139.80 767.20 L 143.50 771.20 L 147.00 775.50 L 150.10 780.30 L 153.00 785.50 L 156.40 794.00 L 158.80 803.80" fill="none" group-id="2,10,65" id="路径_397" node-id="38" stroke="#636689" stroke-linecap="butt" stroke-width="2" target-height="57.299988" target-width="54.200005" target-x="104.6" target-y="746.5"></path><path d="M 145.90 767.90 L 140.30 759.80 L 137.30 756.20 L 129.50 747.90 L 121.20 741.20 L 113.50 736.50 L 109.40 734.60 L 105.10 733.10 L 100.50 731.90 L 77.10 728.30 L 65.90 726.00 L 58.20 723.00 L 54.70 721.00 L 51.50 718.40 L 48.60 715.20 L 46.70 712.60 L 43.30 705.80 L 41.90 701.60 L 41.00 697.90 L 40.80 694.70 L 41.00 692.00 L 41.60 689.70 L 42.70 687.40 L 44.10 685.50 L 45.90 683.80 L 48.00 682.30 L 51.10 680.80 L 54.70 679.60 L 62.70 678.30 L 66.90 678.20 L 75.50 679.00 L 83.40 680.70 L 90.20 683.40 L 103.30 692.00 L 109.40 696.50 L 116.30 702.20 L 125.40 711.10 L 130.30 716.50 L 134.80 722.30 L 139.30 728.80 L 143.80 736.10 L 147.80 743.70 L 151.60 752.30 L 155.30 761.90 L 154.70 764.30 L 152.50 766.20 L 148.90 767.50 L 145.90 767.90 Z" fill="#a5c74e" fill-rule="nonzero" group-id="2,11,66" id="路径_398" node-id="40" stroke="#636689" stroke-linecap="butt" stroke-width="2" target-height="89.70001" target-width="114.5" target-x="40.8" target-y="678.2"></path><path d="M 98.00 713.10 L 109.10 720.40 L 114.10 724.10 L 126.00 733.90 L 132.30 739.60 L 138.20 745.80 L 143.80 752.40 L 147.10 757.00 L 152.70 766.60" fill="none" group-id="2,11,67" id="路径_399" node-id="41" stroke="#636689" stroke-linecap="butt" stroke-width="2" target-height="53.5" target-width="54.699997" target-x="98" target-y="713.1"></path><path d="M 241.90 849.00 L 116.10 849.00 L 116.00 842.90 L 116.20 835.00 L 116.80 827.40 L 117.80 819.90 L 119.20 812.60 L 121.00 805.40 L 122.70 799.80 L 126.80 789.10 L 129.30 784.10 L 134.60 774.90 L 137.60 770.70 L 143.90 763.20 L 147.40 759.90 L 154.60 754.50 L 158.50 752.20 L 166.40 748.90 L 170.60 747.90 L 174.80 747.20 L 179.00 747.00 L 183.20 747.20 L 187.40 747.90 L 191.60 748.90 L 199.50 752.20 L 203.40 754.50 L 210.60 759.90 L 214.10 763.20 L 220.40 770.70 L 226.20 779.40 L 231.20 789.10 L 233.30 794.30 L 237.00 805.40 L 238.80 812.60 L 240.20 819.90 L 241.20 827.40 L 241.80 835.00 L 241.90 849.00 Z" fill="#c2db7a" fill-rule="nonzero" group-id="2,12" node-id="256" stroke="none" target-height="102" target-width="125.899994" target-x="116" target-y="747"></path><path d="M 240.90 848.00 L 240.80 835.10 L 240.20 827.50 L 239.20 820.10 L 237.80 812.80 L 236.00 805.70 L 232.40 794.70 L 230.20 789.50 L 225.30 779.90 L 219.60 771.30 L 213.40 763.90 L 209.90 760.70 L 202.80 755.30 L 199.00 753.10 L 191.30 749.90 L 187.20 748.80 L 183.10 748.20 L 179.00 748.00 L 174.90 748.20 L 170.80 748.80 L 166.70 749.90 L 159.00 753.10 L 155.20 755.30 L 148.10 760.70 L 144.60 763.90 L 138.40 771.30 L 132.70 779.90 L 127.80 789.50 L 125.60 794.70 L 122.00 805.70 L 120.20 812.80 L 118.80 820.10 L 117.80 827.50 L 117.20 835.10 L 117.10 848.00 L 240.90 848.00 M 242.80 850.00 L 242.80 850.00 Z M 242.80 850.00 L 115.20 850.00 L 115.20 835.00 L 115.80 827.30 L 116.80 819.70 L 118.20 812.40 L 120.00 805.20 L 123.70 794.00 L 125.90 788.70 L 131.00 778.90 L 136.80 770.10 L 143.20 762.50 L 146.80 759.20 L 154.10 753.60 L 158.10 751.30 L 166.10 748.00 L 170.40 746.90 L 174.70 746.20 L 179.00 746.00 L 183.30 746.20 L 187.60 746.90 L 191.90 748.00 L 199.90 751.30 L 203.90 753.60 L 211.20 759.20 L 214.80 762.50 L 221.20 770.10 L 227.00 778.90 L 232.10 788.70 L 234.30 794.00 L 238.00 805.20 L 239.80 812.40 L 241.20 819.70 L 242.20 827.30 L 242.80 835.00 L 242.80 850.00 Z" fill="#636689" fill-rule="nonzero" group-id="2,12" node-id="258" stroke="none" target-height="104" target-width="127.600006" target-x="115.2" target-y="746"></path><path d="M 328.10 850.00 L 341.50 842.70 L 356.40 835.90 L 365.30 832.40 L 375.20 829.00 L 389.20 825.10 L 404.20 822.10 L 411.80 821.30 L 419.50 820.80 L 427.20 820.80 L 434.90 821.40 L 449.10 823.60 L 455.60 824.20 L 461.90 824.50 L 468.00 824.30 L 476.20 823.50 L 483.90 822.20 L 491.30 820.30 L 498.50 818.00 L 505.20 815.40 L 511.40 812.50 L 522.70 805.90 L 527.40 802.50 L 535.60 795.40 L 541.20 788.80 L 542.90 785.90 L 543.90 783.50 L 552.50 745.00 L 557.40 727.30 L 560.30 718.50 L 563.50 710.30 L 568.30 700.20 L 570.80 695.90 L 573.70 691.80 L 576.60 688.50 L 579.50 685.90 L 582.00 684.20 L 584.50 683.10 L 587.10 682.40 L 589.80 682.10 L 593.50 682.40 L 598.10 683.40 L 603.90 685.10 L 612.60 688.40 L 622.90 692.90 L 644.90 703.90 L 702.30 734.40 L 721.40 743.40 L 728.80 746.20 L 733.70 747.60 L 737.20 748.10 L 745.80 747.80 L 757.60 749.10 L 775.40 752.50 L 805.30 759.70 L 824.40 764.90 L 855.90 774.00 L 899.20 860.70 L 899.20 892.70 L 328.10 892.70 Z" fill="#98ad25" fill-rule="nonzero" group-id="2,13" id="路径_400" node-id="45" stroke="#636689" stroke-linecap="butt" stroke-width="2" target-height="210.60004" target-width="571.1" target-x="328.1" target-y="682.1"></path><path d="M 360.00 845.70 L 367.50 853.70 L 371.20 857.10 L 375.70 860.60 L 380.40 863.80 L 385.60 866.50 L 389.20 867.90 L 392.80 868.90 L 396.40 869.40 L 401.90 869.00 L 407.30 867.00 L 417.80 860.60 L 423.00 856.60 L 428.30 852.20 L 435.00 845.90 L 441.70 838.90 L 448.30 830.90 L 454.50 822.60 L 460.70 813.50 L 474.20 791.10 L 478.40 785.20 L 482.80 779.90 L 486.00 776.80 L 489.40 774.10 L 493.10 771.80 L 499.20 769.40 L 506.20 768.20 L 513.80 768.40 L 523.00 770.50 L 532.60 774.10 L 538.20 776.80 L 544.40 780.30 L 552.20 785.10 L 561.20 791.30 L 579.10 804.80 L 586.40 809.80 L 593.20 813.90 L 599.50 817.30 L 606.30 820.40 L 612.60 822.90 L 618.50 824.80 L 624.10 826.10 L 635.20 827.70 L 645.00 827.70 L 651.30 826.90 L 657.00 825.70 L 662.20 824.10 L 667.30 822.00 L 675.80 817.40 L 681.40 813.50 L 685.80 809.90 L 692.10 803.70 L 694.20 800.80 L 696.60 796.50 L 707.30 773.60 L 714.10 760.90 L 718.10 754.90 L 722.30 749.50 L 725.40 746.20 L 728.70 743.40 L 732.20 740.90 L 735.90 739.00 L 739.80 737.60 L 744.10 736.70 L 747.80 736.60 L 751.80 736.90 L 755.90 737.70 L 760.30 739.00 L 765.90 741.30 L 771.70 744.40 L 777.70 748.30 L 783.40 752.70 L 789.10 757.60 L 794.70 763.20 L 799.90 769.10 L 804.80 775.40 L 809.50 782.10 L 813.70 789.00 L 817.40 796.20 L 820.60 803.50 L 822.60 809.20 L 825.50 820.40 L 831.20 863.60 L 835.90 893.60 L 360.00 893.60 Z" fill="#c4de7b" fill-rule="nonzero" group-id="2,14" id="路径_401" node-id="46" stroke="#636689" stroke-linecap="butt" stroke-width="2" target-height="157" target-width="475.90002" target-x="360" target-y="736.6"></path><path d="M 928.60 444.60 L 927.00 441.60 L 924.80 438.50 L 922.00 435.40 L 915.50 429.80 L 907.70 424.90 L 899.50 421.10 L 891.30 418.60 L 887.60 418.00 L 883.80 417.80 L 880.60 418.20 L 877.80 419.00 L 876.00 420.00 L 874.40 421.30 L 873.20 423.00 L 872.30 425.10 L 871.80 427.80 L 871.80 430.30 L 872.20 432.80 L 873.20 435.30 L 876.40 439.60 L 881.30 443.60 L 885.10 445.60 L 889.50 447.40 L 894.50 448.70 L 899.60 449.50 L 905.10 449.80 L 910.90 449.50 L 915.20 448.90 L 924.00 446.40 L 928.60 444.60 Z" fill="#a5c74e" fill-rule="nonzero" group-id="2,15,68,91" id="路径_127" node-id="49" stroke="#636689" stroke-linecap="butt" stroke-width="1.999748" target-height="32" target-width="56.799988" target-x="871.8" target-y="417.8"></path><path d="M 949.30 529.30 L 951.30 532.10 L 953.90 534.80 L 957.20 537.60 L 964.50 542.20 L 973.10 546.10 L 981.80 548.70 L 990.40 550.10 L 994.20 550.10 L 998.00 549.80 L 1001.20 549.00 L 1003.80 547.80 L 1005.50 546.50 L 1006.90 545.00 L 1007.90 543.10 L 1008.50 540.90 L 1008.60 538.10 L 1008.30 535.50 L 1007.50 533.10 L 1006.10 530.80 L 1002.40 526.90 L 996.90 523.60 L 992.80 522.10 L 988.10 520.90 L 982.90 520.30 L 977.70 520.20 L 972.20 520.70 L 966.30 521.90 L 962.10 523.10 L 953.60 526.80 L 949.30 529.30 Z" fill="#98ac25" fill-rule="nonzero" group-id="2,15,68,92" id="路径_131" node-id="50" stroke="#636689" stroke-linecap="butt" stroke-width="1.9997479" target-height="29.899963" target-width="59.299988" target-x="949.3" target-y="520.2"></path><path d="M 919.50 381.70 L 919.40 379.00 L 918.60 376.00 L 917.20 372.90 L 915.40 370.00 L 913.30 367.20 L 911.10 365.00 L 909.50 363.70 L 906.50 362.40 L 905.00 362.20 L 903.80 362.60 L 902.50 363.40 L 901.50 364.90 L 900.90 366.60 L 901.00 368.50 L 902.40 372.30 L 905.60 376.10 L 910.40 379.30 L 913.10 380.40 L 916.20 381.20 L 919.50 381.70 Z" fill="#c7e17b" fill-rule="nonzero" group-id="2,15,68,93" id="路径_130" node-id="51" stroke="#636689" stroke-linecap="butt" stroke-width="1.999398" target-height="19.5" target-width="18.599976" target-x="900.9" target-y="362.2"></path><path d="M 928.60 429.60 L 928.20 424.20 L 928.60 421.00 L 929.60 416.30 L 931.30 411.30 L 933.50 406.60 L 936.00 402.20 L 939.00 398.10 L 942.00 394.90 L 944.20 393.20 L 946.40 391.90 L 948.40 391.20 L 950.50 391.00 L 952.50 391.40 L 954.50 392.50 L 956.10 393.90 L 958.00 397.20 L 958.50 399.10 L 958.60 401.80 L 958.30 404.70 L 957.30 407.80 L 955.90 410.80 L 953.90 413.80 L 951.50 416.90 L 948.70 419.70 L 945.40 422.30 L 941.70 424.70 L 937.70 426.70 L 933.40 428.40 L 928.60 429.60 Z" fill="#c7e17b" fill-rule="nonzero" group-id="2,15,68,94" id="路径_128" node-id="52" stroke="#636689" stroke-linecap="butt" stroke-width="1.999748" target-height="38.600006" target-width="30.399963" target-x="928.2" target-y="391"></path><path d="M 922.10 385.70 L 922.90 381.50 L 923.90 379.10 L 925.90 375.60 L 928.40 372.30 L 931.30 369.30 L 934.20 366.90 L 936.30 365.60 L 940.00 364.40 L 941.80 364.40 L 943.30 365.00 L 944.60 366.10 L 946.00 369.10 L 945.80 372.40 L 945.00 374.50 L 943.70 376.70 L 941.60 379.00 L 939.30 380.90 L 936.60 382.60 L 933.30 384.00 L 929.90 385.10 L 926.20 385.60 L 922.10 385.70 Z" fill="#a5c74e" fill-rule="nonzero" group-id="2,15,68,95" id="路径_129" node-id="53" stroke="#636689" stroke-linecap="butt" stroke-width="1.9997339" target-height="21.300018" target-width="23.900024" target-x="922.1" target-y="364.4"></path><path d="M 949.30 529.80 L 954.70 530.90 L 957.90 530.90 L 962.80 530.40 L 967.90 529.40 L 973.00 527.80 L 977.80 525.80 L 982.20 523.30 L 985.70 520.70 L 987.80 518.60 L 989.30 516.60 L 990.30 514.70 L 990.80 512.60 L 990.60 510.50 L 989.80 508.40 L 988.50 506.70 L 985.40 504.30 L 983.60 503.60 L 980.90 503.10 L 977.90 503.10 L 974.70 503.70 L 971.50 504.80 L 968.20 506.30 L 964.90 508.40 L 961.70 510.90 L 958.70 513.80 L 955.80 517.30 L 953.30 521.00 L 951.10 525.20 L 949.30 529.80 Z" fill="#c5df7b" fill-rule="nonzero" group-id="2,15,68,96" id="路径_132" node-id="54" stroke="#636689" stroke-linecap="butt" stroke-width="1.999748" target-height="27.800018" target-width="41.5" target-x="949.3" target-y="503.1"></path><path d="M 931.20 491.00 L 929.50 460.00 L 926.90 425.30 L 925.30 411.20 L 923.00 396.70 L 921.30 387.80 L 919.90 382.10" fill="none" group-id="2,15,68,97" id="路径_133" node-id="55" stroke="#636689" stroke-linecap="butt" stroke-width="1.999748" target-height="108.899994" target-width="11.299988" target-x="919.9" target-y="382.1"></path><path d="M 978.60 457.10 L 912.30 629.40 L 935.30 749.80 L 634.30 685.80 L 724.80 448.10 L 889.30 480.70 L 900.30 544.50 L 956.50 449.20 Z" fill="#f58153" fill-rule="nonzero" group-id="2,15,69" id="路径_112" node-id="56" stroke="#636689" stroke-linecap="butt" stroke-width="1.999748" target-height="301.69998" target-width="344.3" target-x="634.3" target-y="448.1"></path><g clip-path="url(#clip-path)" group-id="2,15,70" id="蒙版组_15" node-id="57"><path d="M 973.30 475.10 L 969.70 475.70 L 964.60 477.90 L 961.90 479.90 L 960.40 481.60 L 957.60 486.30 L 956.60 489.10 L 955.90 492.50 L 955.60 496.70 L 955.80 500.80 L 956.50 505.90 L 957.80 512.00" fill="none" group-id="2,15,70,98" id="路径_115" node-id="58" stroke="#636689" stroke-linecap="butt" stroke-width="1.999748" target-height="36.899994" target-width="17.700012" target-x="955.6" target-y="475.1"></path><path d="M 949.50 458.50 L 954.00 461.90 L 957.40 465.40 L 958.70 467.40 L 959.50 469.40 L 959.70 470.80 L 958.80 473.50 L 954.90 479.40 L 953.30 482.40 L 952.00 485.70 L 951.20 489.20 L 949.50 510.30 L 946.40 532.60 L 944.30 542.20 L 943.10 546.20 L 940.40 551.70 L 933.10 562.30 L 927.40 568.90 L 924.50 571.70 L 921.90 573.70 L 918.40 575.10 L 917.10 575.10 L 915.80 574.60 L 914.60 573.50 L 912.10 569.30 L 910.10 562.90 L 909.00 557.50 L 908.30 551.00 L 908.20 544.40 L 908.50 537.40 L 909.10 532.70 L 911.10 523.50" fill="none" group-id="2,15,70,99" id="路径_116" node-id="59" stroke="#636689" stroke-linecap="butt" stroke-width="1.999748" target-height="116.599976" target-width="51.5" target-x="908.2" target-y="458.5"></path><path d="M 938.00 479.30 L 939.30 481.40 L 942.70 489.40 L 944.40 496.30 L 944.60 499.60 L 943.80 505.90 L 942.00 513.60 L 938.00 525.00 L 935.10 530.70 L 932.30 534.00 L 930.60 535.60 L 928.00 537.00 L 926.90 537.20 L 925.80 537.10 L 924.70 536.40 L 923.50 535.00 L 922.00 530.70 L 920.50 519.10 L 920.30 509.90 L 920.80 505.70" fill="none" group-id="2,15,70,100" id="路径_117" node-id="60" stroke="#636689" stroke-linecap="butt" stroke-width="1.999748" target-height="57.900024" target-width="24.299988" target-x="920.3" target-y="479.3"></path><path d="M 931.60 490.50 L 935.20 495.70 L 936.40 498.20 L 937.50 501.00 L 938.10 504.00 L 938.10 507.00 L 936.80 511.90 L 935.80 513.90 L 933.90 516.60 L 930.70 519.30 L 928.60 519.90 L 927.70 519.60 L 926.30 517.90 L 925.60 515.90 L 925.20 513.00 L 925.40 509.90 L 926.00 506.20 L 926.90 503.70 L 927.80 502.30 L 929.00 501.30 L 930.00 501.00 L 931.10 501.10 L 931.90 501.50 L 932.80 502.90 L 932.60 505.30 L 930.80 512.20" fill="none" group-id="2,15,70,101" id="路径_118" node-id="61" stroke="#636689" stroke-linecap="butt" stroke-width="1.999748" target-height="29.400024" target-width="12.899963" target-x="925.2" target-y="490.5"></path><path d="M 923.60 607.40 L 919.60 605.70 L 916.70 603.90 L 913.70 601.80 L 910.40 598.70 L 906.10 593.70 L 904.10 590.40 L 900.70 583.10 L 899.30 578.50 L 898.40 573.80 L 897.80 568.40 L 897.60 562.30 L 897.90 556.10 L 898.90 549.20 L 900.50 541.30" fill="none" group-id="2,15,70,102" id="路径_119" node-id="62" stroke="#636689" stroke-linecap="butt" stroke-width="1.999748" target-height="66.10004" target-width="26" target-x="897.6" target-y="541.3"></path><path d="M 900.20 512.10 L 834.70 492.40 L 800.50 483.20 L 788.60 480.60 L 784.40 480.00 L 782.60 480.10 L 780.30 481.20 L 776.80 483.40 L 773.20 486.20 L 769.10 489.90 L 765.00 494.20 L 760.80 499.30 L 756.90 504.80 L 753.40 510.90 L 751.30 515.20 L 748.10 524.40 L 736.90 574.80 L 708.90 709.10" fill="none" group-id="2,15,70,103" id="路径_120" node-id="63" stroke="#636689" stroke-linecap="butt" stroke-width="1.999748" target-height="229.09998" target-width="191.29999" target-x="708.9" target-y="480"></path><path d="M 900.90 525.50 L 893.80 526.30 L 890.60 527.00 L 883.40 529.60 L 879.80 531.60 L 875.60 535.30 L 873.80 537.60 L 872.30 540.20 L 871.10 543.10 L 870.20 546.60 L 868.80 559.10 L 868.00 582.60 L 868.40 599.40 L 869.50 615.20 L 871.30 628.50 L 873.00 636.70 L 873.20 640.60 L 873.00 645.30 L 871.30 655.00 L 869.90 660.60 L 867.30 668.70 L 864.00 677.10 L 861.40 682.50 L 855.70 692.60 L 852.50 697.30 L 849.20 701.40 L 845.90 705.00 L 840.40 709.40 L 835.10 711.90 L 827.20 713.60 L 822.60 713.90 L 815.70 713.80 L 808.40 713.10 L 801.00 711.90 L 793.60 710.20 L 786.50 708.00 L 779.80 705.50 L 773.60 702.70 L 765.00 697.60 L 760.40 693.50 L 758.40 690.80 L 756.70 687.50 L 755.20 683.40 L 754.20 679.30 L 753.00 669.60 L 752.80 661.80 L 753.10 653.60 L 754.00 645.30 L 755.30 637.10 L 756.90 629.10 L 758.80 621.90 L 762.80 608.90 L 767.90 594.40 L 770.80 587.10 L 774.10 580.30 L 776.50 575.90 L 781.50 568.30 L 784.40 565.00 L 787.40 562.40 L 790.40 560.30 L 792.80 559.10 L 795.30 558.40 L 797.90 558.00 L 800.70 558.10 L 805.10 558.90 L 809.80 560.40 L 814.80 562.60 L 819.60 565.40 L 824.40 568.70 L 829.30 572.60 L 833.80 577.00 L 838.10 581.80 L 842.20 587.00 L 845.80 592.60 L 849.00 598.50 L 851.60 604.70 L 853.20 609.50 L 854.40 614.40 L 855.20 619.40 L 855.60 624.60 L 855.60 631.50 L 855.00 638.00 L 854.10 644.30 L 852.60 650.50 L 850.90 656.20 L 848.90 661.60 L 843.90 671.40 L 841.20 675.50 L 838.10 679.40 L 835.10 682.50 L 832.10 685.10 L 828.80 687.30 L 825.70 688.70 L 822.80 689.50 L 819.80 689.70 L 816.70 689.50 L 813.50 688.80 L 807.50 686.40 L 804.50 684.60 L 800.30 681.50 L 796.40 678.00 L 793.00 674.00 L 790.20 670.00 L 788.70 667.10 L 786.70 661.70 L 786.10 657.40 L 785.90 646.90 L 787.00 635.60 L 789.50 620.50 L 791.00 613.90 L 793.30 608.70 L 795.10 606.00 L 797.40 603.30 L 800.00 600.90 L 803.00 599.10 L 805.10 598.20 L 809.80 597.60 L 812.30 597.90 L 814.90 598.80 L 817.70 600.30 L 820.30 602.20 L 822.70 604.60 L 826.90 610.30 L 830.00 616.70 L 831.70 621.90 L 832.80 626.90 L 833.30 633.50 L 832.50 639.10 L 830.60 643.30 L 828.90 645.30 L 826.80 646.90 L 824.40 648.00 L 821.90 648.80 L 819.30 649.00 L 816.60 648.90 L 813.90 648.20 L 811.40 647.10 L 809.00 645.50 L 807.00 643.50 L 805.30 640.90 L 803.90 637.60 L 802.30 630.70 L 801.80 624.00 L 802.60 618.50 L 803.60 616.10 L 804.80 614.40 L 806.30 613.10 L 807.60 612.60 L 810.90 612.60 L 813.00 613.30 L 815.00 614.50 L 816.50 615.90 L 818.40 619.60 L 819.10 623.90 L 818.60 630.40 L 816.80 637.60" fill="none" group-id="2,15,70,104" id="路径_121" node-id="64" stroke="#636689" stroke-linecap="butt" stroke-width="1.999748" target-height="188.40002" target-width="148.10004" target-x="752.8" target-y="525.5"></path><path d="M 899.60 531.50 L 892.70 537.50 L 889.90 540.50 L 884.40 547.60 L 882.30 551.50 L 881.20 554.20 L 880.60 556.80 L 880.50 559.50 L 880.90 562.70 L 882.30 568.10 L 891.50 599.10 L 894.00 608.60 L 896.30 618.70 L 898.10 628.90 L 899.20 639.20 L 899.60 646.10 L 899.60 652.90 L 899.10 659.40 L 898.10 665.90 L 896.60 672.00 L 894.50 677.80 L 891.00 685.70 L 884.00 699.40 L 878.50 708.80 L 868.50 723.40 L 860.60 733.20 L 855.60 738.50" fill="none" group-id="2,15,70,105" id="路径_122" node-id="65" stroke="#636689" stroke-linecap="butt" stroke-width="1.999748" target-height="207" target-width="44" target-x="855.6" target-y="531.5"></path><path d="M 859.60 544.20 L 851.20 537.40 L 847.00 534.60 L 836.40 528.50 L 830.40 525.80 L 821.90 523.10 L 817.50 522.20 L 813.00 521.60 L 808.50 521.60 L 804.00 522.10 L 800.70 522.80 L 794.20 525.30 L 790.90 527.20 L 783.70 532.20 L 777.40 537.20 L 772.00 542.10 L 767.10 547.50 L 762.70 553.10 L 758.90 559.10 L 755.60 565.30 L 752.60 572.20 L 750.00 579.70 L 747.80 587.40 L 745.80 596.00 L 736.40 644.30 L 720.60 715.50" fill="none" group-id="2,15,70,106" id="路径_123" node-id="66" stroke="#636689" stroke-linecap="butt" stroke-width="1.999748" target-height="193.90002" target-width="139" target-x="720.6" target-y="521.6"></path><path d="M 927.40 681.00 L 915.40 703.70 L 901.60 728.40 L 895.70 737.80 L 891.60 742.90" fill="none" group-id="2,15,70,107" id="路径_124" node-id="67" stroke="#636689" stroke-linecap="butt" stroke-width="1.999748" target-height="61.900024" target-width="35.80005" target-x="891.6" target-y="681"></path><path d="M 709.80 477.30 L 714.00 481.90 L 718.00 488.20 L 721.00 495.90 L 722.20 500.20 L 724.00 511.70 L 724.30 517.90 L 724.20 525.30 L 723.60 533.80 L 722.50 542.30 L 720.60 552.00 L 718.00 563.20 L 713.40 580.00 L 703.20 613.20 L 687.90 657.70 L 679.30 680.90 L 671.00 702.10" fill="none" group-id="2,15,70,108" id="路径_125" node-id="68" stroke="#636689" stroke-linecap="butt" stroke-width="1.999748" target-height="224.79999" target-width="53.299988" target-x="671" target-y="477.3"></path></g><path d="M 720.90 456.60 L 721.60 454.20 L 722.70 451.80 L 724.40 449.50 L 726.80 447.30 L 729.30 445.50 L 735.90 442.10 L 740.10 440.60 L 745.70 439.00 L 752.20 437.60 L 759.50 436.60 L 766.80 436.00 L 783.40 435.80 L 800.90 437.10 L 810.30 438.40 L 819.70 440.10 L 836.80 444.30 L 852.40 449.60 L 859.20 452.40 L 865.90 455.70 L 871.60 458.90 L 876.40 462.20 L 882.80 467.60 L 887.00 472.70 L 888.60 475.50 L 889.50 478.20 L 889.90 480.80 L 889.70 483.40 L 889.10 485.90 L 887.90 488.20 L 886.20 490.50 L 883.90 492.70 L 878.30 496.30 L 874.70 497.90 L 864.90 501.10 L 858.40 502.40 L 851.10 503.40 L 835.90 504.30 L 818.70 503.80 L 800.30 501.60 L 791.00 499.90 L 773.90 495.80 L 758.20 490.50 L 751.40 487.60 L 744.80 484.40 L 739.10 481.10 L 734.20 477.90 L 730.70 475.10 L 725.40 469.80 L 723.60 467.30 L 722.10 464.50 L 721.10 461.80 L 720.80 459.20 L 720.90 456.60 Z" fill="#fba17a" fill-rule="nonzero" group-id="2,15,71" node-id="351" stroke="none" target-height="68.5" target-width="169.10004" target-x="720.8" target-y="435.8"></path><path d="M 721.90 456.80 L 722.50 454.40 L 723.70 452.10 L 725.40 449.90 L 727.70 447.80 L 731.10 445.50 L 735.40 443.30 L 740.80 441.30 L 746.40 439.70 L 752.70 438.50 L 767.20 436.90 L 783.50 436.80 L 800.90 438.10 L 810.20 439.40 L 819.40 441.10 L 836.30 445.10 L 851.80 450.30 L 865.10 456.30 L 870.70 459.50 L 875.50 462.60 L 880.00 466.20 L 883.50 469.60 L 886.00 472.90 L 887.60 475.60 L 888.50 478.20 L 888.90 480.80 L 888.80 483.20 L 888.10 485.60 L 887.00 487.90 L 885.30 490.10 L 883.00 492.30 L 879.50 494.60 L 875.20 496.80 L 869.80 498.80 L 864.20 500.30 L 857.90 501.60 L 843.40 503.10 L 827.10 503.30 L 809.70 501.90 L 800.50 500.60 L 791.20 499.00 L 774.30 494.90 L 758.80 489.70 L 745.50 483.80 L 739.90 480.60 L 735.10 477.40 L 730.60 473.90 L 727.10 470.40 L 724.60 467.10 L 723.10 464.40 L 722.10 461.80 L 721.70 459.30 L 721.90 456.80 Z" fill="none" group-id="2,15,71" node-id="353" stroke="#636689" stroke-linecap="butt" stroke-width="1.9997479" target-height="66.5" target-width="167.20001" target-x="721.7" target-y="436.8"></path><g clip-path="url(#clip-path-2)" group-id="2,15,72" id="蒙版组_14" node-id="72"><path d="M 722.30 449.80 L 723.00 447.30 L 724.20 445.00 L 725.90 442.70 L 728.20 440.50 L 730.80 438.70 L 737.40 435.30 L 741.60 433.70 L 747.20 432.10 L 753.60 430.80 L 760.90 429.80 L 768.30 429.10 L 784.80 429.00 L 802.40 430.30 L 811.80 431.60 L 821.10 433.30 L 838.20 437.40 L 853.90 442.70 L 860.70 445.60 L 867.30 448.80 L 873.00 452.10 L 877.90 455.30 L 884.30 460.80 L 888.50 465.90 L 890.00 468.70 L 890.90 471.40 L 891.30 474.00 L 891.20 476.60 L 890.50 479.00 L 889.40 481.40 L 887.60 483.70 L 885.30 485.90 L 879.70 489.40 L 876.20 491.10 L 866.30 494.20 L 859.90 495.60 L 852.60 496.60 L 837.30 497.50 L 820.10 496.90 L 801.80 494.80 L 792.40 493.10 L 775.30 488.90 L 759.60 483.60 L 752.90 480.80 L 746.20 477.50 L 740.50 474.30 L 735.70 471.00 L 732.10 468.30 L 726.90 463.00 L 725.10 460.50 L 723.50 457.60 L 722.60 455.00 L 722.20 452.40 L 722.30 449.80 Z" fill="none" group-id="2,15,72,109" node-id="358" stroke="none" target-height="68.5" target-width="169.09998" target-x="722.2" target-y="429"></path><path d="M 723.30 449.90 L 724.00 447.60 L 725.10 445.30 L 726.80 443.10 L 729.10 440.90 L 732.50 438.60 L 736.90 436.40 L 742.30 434.40 L 747.80 432.90 L 754.20 431.60 L 768.60 430.10 L 785.00 429.90 L 802.30 431.30 L 811.60 432.60 L 820.80 434.20 L 837.70 438.30 L 853.30 443.50 L 866.50 449.40 L 872.20 452.60 L 877.00 455.80 L 881.50 459.30 L 885.00 462.80 L 887.50 466.10 L 889.00 468.80 L 889.90 471.40 L 890.30 473.90 L 890.20 476.40 L 889.60 478.80 L 888.40 481.10 L 886.70 483.30 L 884.40 485.40 L 881.00 487.70 L 876.70 489.90 L 871.20 491.90 L 865.70 493.50 L 859.40 494.70 L 852.10 495.70 L 837.00 496.50 L 820.10 495.90 L 801.90 493.80 L 792.70 492.10 L 775.80 488.00 L 760.30 482.90 L 747.00 476.90 L 741.40 473.70 L 736.60 470.60 L 732.00 467.00 L 728.60 463.60 L 726.00 460.30 L 724.50 457.60 L 723.60 455.00 L 723.20 452.40 L 723.30 449.90 Z" fill="none" group-id="2,15,72,109" node-id="360" stroke="#636689" stroke-linecap="butt" stroke-width="1.9997479" target-height="66.600006" target-width="167.09998" target-x="723.2" target-y="429.9"></path><path d="M 809.60 445.40 L 799.90 444.20 L 790.10 443.50 L 780.30 443.40 L 771.10 443.70 L 762.30 444.60 L 754.80 445.90 L 746.10 448.50 L 740.90 451.20 L 739.50 452.60 L 738.50 454.00 L 738.10 455.40 L 738.10 456.80 L 738.60 458.30 L 739.50 459.90 L 743.70 463.70 L 751.20 468.10 L 758.10 471.00 L 766.30 474.00 L 775.00 476.70 L 784.40 479.10 L 803.60 482.90 L 815.50 484.60 L 826.30 485.60 L 833.40 485.90 L 839.70 485.80 L 849.40 484.80 L 856.00 482.80 L 858.50 481.60 L 860.80 479.90 L 862.50 478.00 L 863.70 475.80 L 864.40 473.30 L 864.40 470.70 L 863.90 468.30 L 862.90 465.90 L 861.20 463.60 L 859.10 461.60 L 853.50 457.80 L 844.60 453.80 L 838.70 451.80 L 831.90 449.90 L 821.40 447.50 L 809.60 445.40 Z" fill="none" group-id="2,15,72,110" node-id="364" stroke="none" target-height="42.5" target-width="126.30005" target-x="738.1" target-y="443.4"></path><path d="M 809.30 447.40 L 801.60 446.40 L 785.60 445.40 L 769.90 445.80 L 762.70 446.60 L 753.40 448.30 L 746.20 450.60 L 741.80 453.10 L 740.50 454.40 L 740.00 455.70 L 740.10 456.80 L 740.80 458.20 L 742.10 459.80 L 744.30 461.70 L 747.80 464.00 L 752.60 466.50 L 759.00 469.30 L 768.90 472.80 L 780.20 476.00 L 792.00 478.80 L 803.90 481.00 L 823.30 483.30 L 837.60 483.90 L 844.10 483.50 L 849.20 482.80 L 853.20 481.80 L 856.30 480.50 L 858.70 479.10 L 860.10 477.80 L 861.20 476.40 L 862.40 473.00 L 862.50 471.00 L 862.10 469.00 L 861.10 467.00 L 859.70 464.90 L 857.20 462.60 L 853.70 460.20 L 848.90 457.70 L 843.70 455.60 L 837.30 453.50 L 829.60 451.40 L 820.30 449.30 L 809.30 447.40 M 809.60 445.40 L 821.40 447.50 L 831.90 449.90 L 838.70 451.80 L 849.70 455.90 L 856.60 459.70 L 861.20 463.60 L 862.90 465.90 L 863.90 468.30 L 864.40 470.70 L 864.40 473.30 L 863.70 475.80 L 862.50 478.00 L 860.80 479.90 L 858.50 481.60 L 853.00 483.90 L 845.20 485.40 L 839.70 485.80 L 826.30 485.60 L 815.50 484.60 L 803.60 482.90 L 794.00 481.20 L 775.00 476.70 L 766.30 474.00 L 758.10 471.00 L 751.20 468.10 L 747.00 465.80 L 741.20 461.70 L 739.50 459.90 L 738.60 458.30 L 738.10 456.80 L 738.10 455.40 L 738.50 454.00 L 739.50 452.60 L 740.90 451.20 L 743.10 449.90 L 749.90 447.10 L 754.80 445.90 L 762.30 444.60 L 771.10 443.70 L 780.30 443.40 L 790.10 443.50 L 799.90 444.20 L 809.60 445.40 Z" fill="#636689" fill-rule="nonzero" group-id="2,15,72,110" node-id="366" stroke="none" target-height="42.399994" target-width="126.30005" target-x="738.1" target-y="443.4"></path><path d="M 779.40 460.90 L 779.70 459.60 L 780.70 458.40 L 782.30 457.20 L 786.40 455.40 L 789.50 454.70 L 794.20 453.90 L 799.90 453.40 L 806.00 453.40 L 812.60 453.70 L 819.20 454.50 L 825.10 455.60 L 830.70 457.10 L 835.20 458.70 L 838.10 460.00 L 841.90 462.40 L 843.30 463.90 L 844.00 465.20 L 844.10 466.50 L 843.70 467.80 L 842.80 469.00 L 839.40 471.10 L 834.00 472.70 L 829.30 473.50 L 823.50 474.00 L 817.50 474.00 L 810.90 473.70 L 804.20 472.90 L 798.30 471.80 L 792.80 470.30 L 788.20 468.70 L 785.40 467.40 L 781.60 465.00 L 780.20 463.50 L 779.50 462.20 L 779.40 460.90 Z" fill="none" group-id="2,15,72,111" node-id="370" stroke="none" target-height="20.600006" target-width="64.69995" target-x="779.4" target-y="453.4"></path><path d="M 780.40 461.00 L 780.70 459.80 L 781.60 458.80 L 783.10 457.70 L 786.00 456.50 L 790.10 455.40 L 800.20 454.40 L 812.50 454.70 L 824.70 456.50 L 834.50 459.30 L 838.40 461.10 L 841.00 462.70 L 842.30 464.10 L 843.00 465.30 L 843.10 466.40 L 842.80 467.60 L 841.90 468.60 L 840.30 469.70 L 837.50 470.90 L 833.40 472.00 L 823.20 473.00 L 811.00 472.70 L 798.80 470.90 L 789.00 468.10 L 785.10 466.30 L 782.50 464.70 L 781.20 463.30 L 780.50 462.10 L 780.40 461.00 Z" fill="none" group-id="2,15,72,111" node-id="372" stroke="#636689" stroke-linecap="butt" stroke-width="1.999748" target-height="18.600006" target-width="62.69995" target-x="780.4" target-y="454.4"></path><path d="M 788.90 457.50 L 797.60 458.10 L 809.50 459.60 L 816.10 461.30 L 818.00 462.20 L 819.60 463.70 L 820.60 465.60 L 820.30 466.40 L 819.50 467.00 L 817.90 467.40 L 813.60 467.30 L 801.90 464.60 L 796.20 463.60" fill="none" group-id="2,15,72,112" id="路径_114" node-id="82" stroke="#636689" stroke-linecap="butt" stroke-width="1.999748" target-height="9.899994" target-width="31.699951" target-x="788.9" target-y="457.5"></path></g><path d="M 955.20 450.60 L 956.70 448.10 L 958.00 447.20 L 960.20 446.20 L 963.00 445.60 L 966.00 445.70 L 969.30 446.30 L 972.50 447.50 L 975.10 449.10 L 977.20 451.00 L 978.50 453.10 L 979.10 454.60 L 979.10 457.40 L 977.60 459.90 L 976.30 460.80 L 974.10 461.80 L 971.20 462.40 L 968.20 462.30 L 964.90 461.70 L 961.80 460.50 L 959.20 458.90 L 957.10 457.00 L 955.70 454.90 L 955.20 453.40 L 955.20 450.60 Z" fill="#fba17a" fill-rule="nonzero" group-id="2,15,73" node-id="381" stroke="none" target-height="16.799988" target-width="23.899963" target-x="955.2" target-y="445.6"></path><path d="M 956.20 450.90 L 957.50 448.70 L 958.60 447.90 L 960.70 447.00 L 963.30 446.60 L 966.00 446.70 L 969.10 447.30 L 972.00 448.40 L 974.30 449.80 L 976.30 451.50 L 977.60 453.30 L 978.30 455.90 L 978.10 457.10 L 976.80 459.30 L 975.60 460.10 L 973.60 461.00 L 971.00 461.40 L 968.20 461.30 L 965.20 460.70 L 962.30 459.60 L 959.90 458.20 L 958.00 456.50 L 956.70 454.70 L 956.20 453.40 L 956.20 450.90 Z" fill="none" group-id="2,15,73" node-id="383" stroke="#636689" stroke-linecap="butt" stroke-width="2.0006518" target-height="14.799988" target-width="22.099976" target-x="956.2" target-y="446.6"></path><path d="M 557.40 177.90 L 557.30 170.40 L 557.50 167.20 L 559.10 159.90 L 560.60 156.40 L 563.60 152.10 L 565.50 150.30 L 569.30 147.70 L 573.10 145.70 L 577.20 144.20 L 581.40 143.30 L 585.70 143.00 L 590.10 143.30 L 596.50 145.00 L 599.60 146.50 L 605.40 149.80 L 607.50 150.60 L 609.30 150.80 L 611.20 150.60 L 612.70 150.10 L 614.20 149.10 L 616.00 147.30 L 617.40 144.80 L 618.50 142.10 L 619.60 136.40 L 619.80 131.90 L 621.30 128.00 L 624.20 124.70 L 626.10 123.30 L 630.60 121.30 L 633.30 120.70 L 636.00 120.50 L 638.90 120.70 L 642.00 121.40 L 648.10 123.70 L 653.60 127.10 L 656.20 129.40 L 658.50 132.10 L 660.40 135.10 L 662.10 138.60 L 663.50 142.80 L 664.40 147.20 L 664.90 152.30 L 664.90 158.30 L 664.30 164.40 L 663.30 169.70 L 661.90 174.20 L 660.20 178.10 L 657.90 181.80 L 655.40 184.90 L 652.70 187.50 L 649.70 189.50 L 646.50 191.10 L 643.10 192.30 L 639.50 193.00 L 635.70 193.30 L 631.90 193.10 L 628.40 192.40 L 625.00 191.40 L 620.30 189.20 L 615.90 186.60 L 604.50 178.80 L 601.40 177.20 L 599.40 176.60 L 597.30 176.40 L 593.20 177.50 L 589.30 179.90 L 584.10 184.90 L 579.50 191.30 L 578.50 192.00 L 575.40 192.60 L 573.30 192.30 L 569.20 190.80 L 564.80 188.30 Z" fill="#84dceb" fill-rule="nonzero" group-id="3,16" id="路径_414" node-id="87" stroke="#636689" stroke-linecap="butt" stroke-width="2" target-height="72.8" target-width="107.60004" target-x="557.3" target-y="120.5"></path><path d="M 510.90 188.50 L 508.80 192.50 L 507.70 195.90 L 506.80 201.20 L 506.90 208.00 L 508.60 216.30 L 504.80 219.20 L 501.90 222.10 L 499.70 224.80 L 498.00 227.60 L 497.10 229.90 L 496.60 232.30 L 496.60 234.80 L 497.00 237.40 L 497.80 240.10 L 498.80 241.80 L 502.00 245.10 L 506.40 247.60 L 512.10 249.20 L 518.60 249.30 L 522.00 248.70 L 525.50 247.60 L 529.20 246.00 L 532.70 243.80 L 536.30 241.00 L 540.10 237.30 L 543.20 236.20 L 544.80 236.00 L 546.10 236.20 L 546.90 237.40 L 546.60 238.90 L 554.80 254.30 L 562.30 237.30 L 566.80 197.10 L 568.80 191.60 L 569.30 186.30 L 568.50 182.60 L 567.60 180.70 L 565.30 178.40 L 563.80 177.70 L 561.20 177.10 L 555.50 177.00 L 546.60 178.80 Z" fill="#171948" fill-rule="nonzero" group-id="3,17" id="路径_411" node-id="88" stroke="#636689" stroke-linecap="butt" stroke-width="2" target-height="77.3" target-width="72.69998" target-x="496.6" target-y="177"></path><path d="M 521.40 210.40 L 521.10 217.70 L 521.40 220.90 L 522.80 227.90 L 524.20 231.10 L 525.50 233.10 L 528.90 236.30 L 531.50 237.80 L 534.10 238.70 L 536.80 239.30 L 542.20 239.50 L 548.50 238.10 L 551.90 236.70 L 554.90 234.90 L 557.20 233.00 L 557.60 237.70 L 557.00 245.00 L 556.50 247.10 L 555.70 248.90 L 554.80 249.80 L 553.40 254.20 L 551.90 261.00 L 549.10 276.60 L 557.10 296.30 L 574.80 285.70 L 594.70 271.00 L 599.60 246.20 L 589.90 235.10 L 579.60 235.10 L 569.90 224.10 L 560.10 214.10 L 557.50 209.90 L 554.80 202.60 L 544.10 200.80 L 521.40 210.40 Z" fill="#f7bdbd" fill-rule="nonzero" group-id="3,18" id="路径_412" node-id="89" stroke="#636689" stroke-linecap="butt" stroke-width="2" target-height="95.499985" target-width="78.5" target-x="521.1" target-y="200.8"></path><path d="M 559.40 196.50 L 554.90 201.70 L 550.10 206.10 L 547.20 208.20 L 541.60 210.90 L 536.60 212.00 L 531.80 212.30 L 524.30 211.90 L 518.90 210.60 L 516.50 209.50 L 514.30 208.00 L 512.40 206.20 L 510.80 204.10 L 509.50 201.50 L 508.50 198.20 L 508.10 195.60 L 508.20 193.30 L 509.30 188.90 L 510.80 186.20 L 512.70 183.70 L 515.00 181.40 L 520.40 177.50 L 523.30 176.00 L 527.90 174.20 L 532.10 173.10 L 537.80 172.70 L 544.00 173.50 L 550.30 175.60 L 556.10 178.90 L 561.30 183.40 L 563.40 186.10 L 565.30 189.20 L 566.80 192.40 L 568.70 198.90 L 569.30 203.60 L 569.40 207.90 L 569.00 212.00 L 568.50 215.20 L 566.90 219.20 L 565.80 219.70 L 563.70 218.90 L 556.30 213.20 L 554.80 212.50 L 554.30 214.50 L 554.30 223.30 L 552.90 222.80 L 549.80 221.00 L 548.10 219.40 L 546.30 217.10 L 544.50 213.30 L 543.90 210.60" fill="#84dceb" fill-rule="nonzero" group-id="3,19" id="路径_413" node-id="90" stroke="#636689" stroke-linecap="butt" stroke-width="2" target-height="50.600006" target-width="61.30002" target-x="508.1" target-y="172.7"></path><path d="M 715.50 500.80 L 610.90 629.50 L 828.90 638.20 L 841.20 651.60 L 848.40 691.60 L 838.10 706.40 L 767.30 764.90 L 601.20 765.10 L 540.20 764.90 L 534.70 764.60 L 528.90 763.80 L 522.70 762.50 L 516.60 760.70 L 510.50 758.40 L 504.30 755.50 L 498.30 752.10 L 492.50 748.00 L 486.90 743.40 L 483.00 739.50 L 479.30 735.30 L 475.80 730.70 L 472.60 725.60 L 469.70 720.40 L 467.20 714.70 L 465.10 708.50 L 463.20 701.80 L 462.10 693.10 L 462.20 688.20 L 462.60 683.10 L 463.60 676.40 L 465.10 669.30 L 467.20 661.90 L 472.50 647.10 L 480.70 628.60 L 491.60 607.70 L 502.30 589.70 L 516.60 568.00 L 635.00 479.80 Z" fill="#f585c9" fill-rule="nonzero" group-id="4,20" id="路径_433" node-id="92" stroke="#636689" stroke-linecap="butt" stroke-width="2" target-height="285.3" target-width="386.30002" target-x="462.1" target-y="479.8"></path><g clip-path="url(#clip-path-3)" group-id="4,21" node-id="412"><path d="M 812.00 636.80 L 831.80 721.30 L 860.60 685.40 L 847.50 634.90 Z" fill="#f1c0be" fill-rule="nonzero" group-id="4,21,74" id="路径_434" node-id="94" stroke="#636689" stroke-linecap="butt" stroke-width="2" target-height="86.39996" target-width="48.599976" target-x="812" target-y="634.9"></path></g><path d="M 749.10 749.10 L 751.70 754.10 L 753.90 756.90 L 757.00 759.80 L 762.20 763.00 L 765.60 764.30 L 769.20 765.30 L 773.50 765.80 L 791.70 765.80 L 805.60 766.60 L 812.50 767.50 L 825.20 770.10 L 830.40 771.80 L 836.40 774.70 L 838.50 776.30 L 842.30 779.90 L 846.40 784.70 L 850.20 790.00 L 853.80 795.80 L 857.00 801.90 L 859.50 807.90 L 860.80 812.00 L 861.90 819.20 L 855.30 819.30 L 844.40 820.80 L 838.00 822.10 L 826.20 825.80 L 816.80 830.10 L 812.30 832.80 L 808.00 835.90 L 803.90 839.30 L 801.10 842.20 L 796.30 848.70 L 794.20 852.50 L 792.40 856.30 L 791.10 860.50 L 790.00 865.10 L 789.30 870.10 L 789.10 875.10 L 789.30 880.50 L 790.10 886.50 L 791.30 893.00 L 966.40 893.00 L 917.90 642.40 L 817.30 637.80 L 825.30 644.00 L 831.90 650.70 L 835.70 656.10 L 838.40 662.00 L 839.00 665.00 L 839.10 668.20 L 837.80 679.60 L 836.90 683.20 L 834.20 689.90 L 832.30 692.90 L 829.80 695.80 L 826.60 698.50 L 823.10 700.80 L 818.60 703.00 L 813.00 705.00 L 807.20 706.40 L 801.10 707.20 L 794.80 707.60 L 770.60 707.60 L 765.50 707.90 L 759.40 709.10 L 756.90 710.00 L 754.70 711.30 L 752.90 713.00 L 751.50 715.00 L 749.80 718.50 L 747.80 725.40 L 747.00 730.50 L 746.80 735.30 L 747.00 739.80 L 747.60 743.50 L 749.10 749.10 Z" fill="#ffd865" fill-rule="nonzero" group-id="4,22" id="路径_436" node-id="95" stroke="#636689" stroke-linecap="butt" stroke-width="2" target-height="255.20001" target-width="219.60004" target-x="746.8" target-y="637.8"></path><g clip-path="url(#clip-path-4)" group-id="4,23" id="蒙版组_47" node-id="96"><path d="M 868.10 827.20 L 871.30 827.40 L 875.80 826.90 L 878.30 826.10 L 881.20 824.20 L 883.50 821.20 L 884.30 819.20 L 884.80 816.60 L 885.00 812.90 L 884.80 807.70 L 883.40 795.70 L 881.00 782.20 L 878.10 768.70 L 875.00 757.10 L 873.40 752.20 L 870.60 745.80 L 866.40 738.50 L 860.80 731.70 L 854.20 726.10 L 845.80 720.80 L 840.20 718.00 L 827.80 713.30 L 819.90 711.00 L 802.70 707.20 L 791.90 705.50" fill="none" group-id="4,23,75" id="路径_437" node-id="97" stroke="#636689" stroke-linecap="butt" stroke-width="2" target-height="121.900024" target-width="93.099976" target-x="791.9" target-y="705.5"></path><path d="M 859.90 817.60 L 863.70 819.90 L 869.40 824.50 L 872.60 828.00 L 875.70 831.90 L 878.70 836.80 L 882.00 844.40 L 883.40 848.90 L 884.30 853.50 L 884.90 858.70 L 885.10 864.50 L 895.30 864.20 L 936.20 864.50 L 888.60 636.70 L 921.30 636.70 L 970.60 894.40 L 786.80 901.10 L 785.20 845.10 L 817.20 823.40 Z" fill="#ffffff" fill-rule="nonzero" group-id="4,23,76" id="路径_438" node-id="98" stroke="#636689" stroke-linecap="butt" stroke-width="2" target-height="264.39996" target-width="185.39996" target-x="785.2" target-y="636.7"></path></g><path d="M 867.80 726.70 L 864.80 733.00 L 859.20 742.00 L 851.20 751.60 L 841.80 760.30 L 836.40 764.60 L 830.10 769.10 L 822.50 773.90" fill="none" group-id="4,24" id="路径_440" node-id="99" stroke="#636689" stroke-linecap="butt" stroke-width="2" target-height="47.200012" target-width="45.299988" target-x="822.5" target-y="726.7"></path><path d="M 836.20 779.10 L 845.40 778.60 L 849.60 777.90 L 854.60 776.70 L 859.60 775.20 L 864.90 772.90 L 871.60 768.90 L 874.80 766.40 L 877.70 763.50 L 880.30 760.20 L 882.70 756.30" fill="none" group-id="4,25" id="路径_441" node-id="100" stroke="#636689" stroke-linecap="butt" stroke-width="2" target-height="22.799988" target-width="46.5" target-x="836.2" target-y="756.3"></path><path d="M 843.20 791.20 L 857.40 791.20 L 868.20 790.30 L 873.90 789.50 L 879.60 788.30 L 885.00 786.70 L 888.50 785.30 L 894.60 782.00" fill="none" group-id="4,26" id="路径_442" node-id="101" stroke="#636689" stroke-linecap="butt" stroke-width="2" target-height="9.200012" target-width="51.399963" target-x="843.2" target-y="782"></path><path d="M 850.90 805.30 L 867.70 805.90 L 879.10 805.20 L 888.00 803.70 L 893.30 801.60" fill="none" group-id="4,27" id="路径_443" node-id="102" stroke="#636689" stroke-linecap="butt" stroke-width="2" target-height="4.300049" target-width="42.399963" target-x="850.9" target-y="801.6"></path><path d="M 873.00 723.00 L 872.80 724.40 L 871.50 726.50 L 869.40 727.80 L 868.00 728.00 L 865.50 727.30 L 863.70 725.50 L 863.20 724.40 L 863.00 723.00 L 863.70 720.50 L 865.50 718.70 L 868.00 718.00 L 869.40 718.20 L 871.50 719.50 L 872.80 721.60 L 873.00 723.00 Z" fill="#080c47" fill-rule="nonzero" group-id="4,28" id="椭圆_70" node-id="103" stroke="none" target-height="10" target-width="10" target-x="863" target-y="718"></path><path d="M 889.00 754.00 L 888.80 755.40 L 887.50 757.50 L 885.40 758.80 L 884.00 759.00 L 881.50 758.30 L 879.70 756.50 L 879.20 755.40 L 879.00 754.00 L 879.70 751.50 L 881.50 749.70 L 884.00 749.00 L 885.40 749.20 L 887.50 750.50 L 888.80 752.60 L 889.00 754.00 Z" fill="#080c47" fill-rule="nonzero" group-id="4,29" id="椭圆_71" node-id="104" stroke="none" target-height="10" target-width="10" target-x="879" target-y="749"></path><path d="M 900.00 780.00 L 899.80 781.40 L 898.50 783.50 L 896.40 784.80 L 895.00 785.00 L 892.50 784.30 L 890.70 782.50 L 890.20 781.40 L 890.00 780.00 L 890.70 777.50 L 892.50 775.70 L 895.00 775.00 L 896.40 775.20 L 898.50 776.50 L 899.80 778.60 L 900.00 780.00 Z" fill="#080c47" fill-rule="nonzero" group-id="4,30" id="椭圆_72" node-id="105" stroke="none" target-height="10" target-width="10" target-x="890" target-y="775"></path><path d="M 900.00 801.00 L 899.80 802.40 L 898.50 804.50 L 896.40 805.80 L 895.00 806.00 L 892.50 805.30 L 890.70 803.50 L 890.20 802.40 L 890.00 801.00 L 890.70 798.50 L 892.50 796.70 L 895.00 796.00 L 896.40 796.20 L 898.50 797.50 L 899.80 799.60 L 900.00 801.00 Z" fill="#080c47" fill-rule="nonzero" group-id="4,31" id="椭圆_73" node-id="106" stroke="none" target-height="10" target-width="10" target-x="890" target-y="796"></path><path d="M 887.00 672.00 L 886.70 674.10 L 885.80 676.10 L 884.30 678.10 L 882.40 679.70 L 880.00 681.10 L 874.10 683.20 L 867.00 684.00 L 859.90 683.20 L 854.00 681.10 L 851.60 679.70 L 849.70 678.10 L 848.20 676.10 L 847.30 674.10 L 847.00 672.00 L 847.30 669.90 L 848.20 667.90 L 849.70 665.90 L 851.60 664.30 L 854.00 662.90 L 856.90 661.60 L 859.90 660.80 L 867.00 660.00 L 874.10 660.80 L 880.00 662.90 L 882.40 664.30 L 884.30 665.90 L 885.80 667.90 L 886.70 669.90 L 887.00 672.00 Z" fill="#ffffff" fill-rule="nonzero" group-id="4,32" node-id="464" stroke="none" target-height="24" target-width="40" target-x="847" target-y="660"></path><path d="M 886.00 672.00 L 885.70 673.90 L 884.90 675.80 L 883.40 677.60 L 879.40 680.40 L 873.70 682.30 L 867.00 683.00 L 860.30 682.30 L 854.60 680.40 L 850.60 677.60 L 849.10 675.80 L 848.30 673.90 L 848.00 672.00 L 848.30 670.10 L 849.10 668.20 L 850.60 666.40 L 852.40 665.00 L 854.60 663.60 L 860.30 661.70 L 867.00 661.00 L 873.70 661.70 L 879.40 663.60 L 883.40 666.40 L 884.90 668.20 L 885.70 670.10 L 886.00 672.00 Z" fill="none" group-id="4,32" node-id="466" stroke="#636689" stroke-linecap="butt" stroke-width="2" target-height="22" target-width="38" target-x="848" target-y="661"></path><path d="M 736.10 432.10 L 521.70 432.10 L 488.90 476.70 L 481.80 488.80 L 478.80 494.80 L 473.50 507.80 L 469.80 520.00 L 467.20 533.20 L 466.30 540.40 L 466.00 547.60 L 466.10 555.10 L 466.80 562.80 L 468.30 572.00 L 470.40 581.40 L 473.10 591.00 L 476.30 600.50 L 480.20 610.50 L 484.80 621.10 L 489.70 631.50 L 502.20 654.60 L 512.90 672.50 L 525.60 692.80 L 539.40 713.60 L 555.50 737.20 L 561.10 743.60 L 565.70 749.50 L 569.50 754.90 L 572.90 760.60 L 577.60 769.90 L 580.10 776.20 L 582.30 784.20 L 720.10 808.40 L 747.70 763.50 L 573.40 547.70 L 662.50 521.30 L 705.30 509.40 L 708.50 508.40 L 711.90 506.80 L 715.70 504.60 L 722.60 498.80 L 729.30 491.10 L 732.30 486.70 L 735.00 482.00 L 737.40 477.00 L 739.30 471.80 L 740.70 466.40 L 741.70 460.90 L 742.00 455.20 L 741.60 449.40 L 741.00 445.10 L 739.80 440.80 L 738.20 436.50 L 736.10 432.10 Z" fill="#f79aca" fill-rule="nonzero" group-id="5,33" id="路径_444" node-id="111" stroke="#636689" stroke-linecap="butt" stroke-width="2" target-height="376.30002" target-width="281.7" target-x="466" target-y="432.1"></path><g clip-path="url(#clip-path-5)" group-id="5,34" node-id="476"><path d="M 744.00 758.00 L 562.50 758.00 L 581.70 802.60 L 718.80 817.20 L 729.60 811.00 L 757.70 793.50 L 748.20 758.00 Z" fill="#f9c0bf" fill-rule="nonzero" group-id="5,34,77" id="路径_445" node-id="113" stroke="#636689" stroke-linecap="butt" stroke-width="2" target-height="59.200012" target-width="195.20001" target-x="562.5" target-y="758"></path></g><path d="M 486.20 893.30 L 861.70 893.30 L 743.20 757.80 L 737.20 767.60 L 730.40 776.50 L 726.20 781.00 L 721.40 785.20 L 718.00 787.60 L 714.50 789.60 L 707.90 792.10 L 702.00 792.80 L 698.80 792.60 L 692.60 791.40 L 686.80 789.90 L 681.30 787.90 L 676.10 785.60 L 671.10 782.80 L 666.30 779.70 L 661.70 776.20 L 657.40 772.40 L 651.90 766.90 L 646.80 760.90 L 626.90 733.30 L 622.00 727.60 L 618.40 724.10 L 614.70 721.10 L 610.90 718.60 L 604.50 715.90 L 597.20 714.50 L 592.00 714.30 L 586.50 714.60 L 581.00 715.30 L 575.70 716.60 L 569.10 719.00 L 563.70 722.40 L 561.60 724.40 L 559.90 726.60 L 558.70 729.00 L 558.00 731.70 L 557.90 734.70 L 558.20 736.80 L 560.10 741.90 L 576.80 767.70 L 578.40 771.10 L 579.60 774.60 L 580.20 777.40 L 580.30 780.90 L 580.00 784.50 L 579.10 788.40 L 576.80 793.30 L 575.10 795.70 L 573.00 797.70 L 570.60 799.60 L 567.60 801.20 L 549.70 808.50 L 540.60 811.60 L 532.30 812.70 L 526.00 813.90 L 520.50 815.40 L 515.60 817.20 L 510.80 819.40 L 506.50 821.80 L 502.80 824.50 L 496.50 830.40 L 493.80 833.60 L 489.70 840.40 L 487.50 845.20 L 485.90 850.10 L 484.70 855.00 L 483.40 864.60 L 483.50 875.80 L 484.70 886.60 L 486.20 893.30 Z" fill="#ffd865" fill-rule="nonzero" group-id="5,35" id="路径_447" node-id="114" stroke="#636689" stroke-linecap="butt" stroke-width="2" target-height="179" target-width="378.30002" target-x="483.4" target-y="714.3"></path><g clip-path="url(#clip-path-6)" group-id="5,36" id="蒙版组_49" node-id="115"><path d="M 557.70 826.90 L 569.80 825.00 L 582.20 822.40 L 596.40 818.80 L 603.60 816.60 L 610.50 814.10 L 617.00 811.20 L 622.70 808.10 L 626.10 805.70 L 628.90 803.30 L 631.10 800.80 L 636.00 793.00 L 637.90 789.00 L 640.20 782.80 L 641.80 776.70 L 642.90 770.70 L 643.50 759.90 L 643.30 755.60 L 642.00 749.20" fill="none" group-id="5,36,78" id="路径_448" node-id="116" stroke="#636689" stroke-linecap="butt" stroke-width="2" target-height="77.70001" target-width="85.79999" target-x="557.7" target-y="749.2"></path><path d="M 538.60 811.40 L 548.70 818.10 L 558.00 825.40 L 564.20 831.90 L 567.30 835.70 L 570.00 839.70 L 572.40 844.20 L 574.40 849.00 L 576.60 856.70 L 577.40 865.40 L 625.30 865.20 L 840.70 865.40 L 866.80 895.70 L 480.70 895.70 L 480.70 841.80 L 500.70 816.20 Z" fill="#ffffff" fill-rule="nonzero" group-id="5,36,79" id="路径_449" node-id="117" stroke="#636689" stroke-linecap="butt" stroke-width="2" target-height="84.29999" target-width="386.09998" target-x="480.7" target-y="811.4"></path></g><path d="M 550.80 800.50 L 556.50 802.30 L 560.60 804.10 L 564.80 806.30 L 569.60 809.40 L 572.60 811.80 L 578.40 817.80 L 580.90 821.30 L 583.10 825.30 L 584.90 829.90" fill="none" group-id="5,37" id="路径_451" node-id="118" stroke="#636689" stroke-linecap="butt" stroke-width="2" target-height="29.400024" target-width="34.100037" target-x="550.8" target-y="800.5"></path><path d="M 567.90 791.90 L 573.90 793.70 L 578.30 795.60 L 583.00 798.00 L 588.30 801.40 L 591.80 804.10 L 598.80 811.00 L 601.90 815.10 L 604.80 819.80 L 607.50 825.30" fill="none" group-id="5,38" id="路径_452" node-id="119" stroke="#636689" stroke-linecap="butt" stroke-width="2" target-height="33.399963" target-width="39.599976" target-x="567.9" target-y="791.9"></path><path d="M 574.90 777.60 L 580.40 777.80 L 589.40 779.40 L 598.90 782.70 L 607.40 787.00 L 611.60 789.80 L 615.90 793.20 L 620.30 797.20 L 624.40 801.60 L 628.50 806.80 L 632.50 812.90" fill="none" group-id="5,39" id="路径_453" node-id="120" stroke="#636689" stroke-linecap="butt" stroke-width="2" target-height="35.30005" target-width="57.599976" target-x="574.9" target-y="777.6"></path><path d="M 576.50 769.50 L 583.10 768.50 L 594.00 768.20 L 605.80 769.40 L 616.50 772.00 L 621.90 773.90 L 627.50 776.30 L 633.40 779.40 L 638.90 782.90 L 644.60 787.20 L 650.30 792.30" fill="none" group-id="5,40" id="路径_454" node-id="121" stroke="#636689" stroke-linecap="butt" stroke-width="2" target-height="24.099976" target-width="73.79999" target-x="576.5" target-y="768.2"></path><path d="M 590.00 831.00 L 589.80 832.40 L 588.50 834.50 L 586.40 835.80 L 585.00 836.00 L 582.50 835.30 L 580.70 833.50 L 580.20 832.40 L 580.00 831.00 L 580.70 828.50 L 582.50 826.70 L 585.00 826.00 L 586.40 826.20 L 588.50 827.50 L 589.80 829.60 L 590.00 831.00 Z" fill="#040540" fill-rule="nonzero" group-id="5,41" id="椭圆_75" node-id="122" stroke="none" target-height="10" target-width="10" target-x="580" target-y="826"></path><path d="M 614.00 827.00 L 613.80 828.40 L 612.50 830.50 L 610.40 831.80 L 609.00 832.00 L 606.50 831.30 L 604.70 829.50 L 604.20 828.40 L 604.00 827.00 L 604.70 824.50 L 606.50 822.70 L 609.00 822.00 L 610.40 822.20 L 612.50 823.50 L 613.80 825.60 L 614.00 827.00 Z" fill="#040540" fill-rule="nonzero" group-id="5,42" id="椭圆_76" node-id="123" stroke="none" target-height="10" target-width="10" target-x="604" target-y="822"></path><path d="M 638.00 814.00 L 637.80 815.40 L 636.50 817.50 L 634.40 818.80 L 633.00 819.00 L 630.50 818.30 L 628.70 816.50 L 628.20 815.40 L 628.00 814.00 L 628.70 811.50 L 630.50 809.70 L 633.00 809.00 L 634.40 809.20 L 636.50 810.50 L 637.80 812.60 L 638.00 814.00 Z" fill="#040540" fill-rule="nonzero" group-id="5,43" id="椭圆_77" node-id="124" stroke="none" target-height="10" target-width="10" target-x="628" target-y="809"></path><path d="M 656.00 792.00 L 655.80 793.40 L 654.50 795.50 L 652.40 796.80 L 651.00 797.00 L 648.50 796.30 L 646.70 794.50 L 646.20 793.40 L 646.00 792.00 L 646.70 789.50 L 648.50 787.70 L 651.00 787.00 L 652.40 787.20 L 654.50 788.50 L 655.80 790.60 L 656.00 792.00 Z" fill="#040540" fill-rule="nonzero" group-id="5,44" id="椭圆_78" node-id="125" stroke="none" target-height="10" target-width="10" target-x="646" target-y="787"></path><path d="M 758.80 817.40 L 760.40 822.10 L 761.60 826.60 L 762.20 830.70 L 762.30 834.90 L 762.00 838.50 L 761.30 841.50 L 760.40 843.70 L 759.20 845.30 L 757.90 846.60 L 756.30 847.50 L 754.60 847.90 L 752.80 848.00 L 750.80 847.60 L 748.60 846.60 L 746.00 845.00 L 743.30 842.60 L 740.50 839.50 L 738.10 836.10 L 735.80 832.10 L 733.70 827.50 L 732.00 822.80 L 730.90 818.40 L 730.30 814.20 L 730.10 810.00 L 730.40 806.40 L 731.20 803.40 L 732.10 801.30 L 733.20 799.60 L 734.60 798.30 L 736.10 797.40 L 737.90 797.00 L 739.70 797.00 L 741.70 797.40 L 743.80 798.30 L 746.50 800.00 L 749.20 802.30 L 752.00 805.50 L 754.40 808.90 L 756.70 812.80 L 758.80 817.40 Z" fill="#ffffff" fill-rule="nonzero" group-id="5,45" node-id="528" stroke="none" target-height="51" target-width="32.200012" target-x="730.1" target-y="797"></path><path d="M 757.90 817.80 L 760.60 826.60 L 761.20 830.60 L 761.40 834.60 L 761.10 838.00 L 760.50 840.90 L 759.70 843.00 L 757.40 845.70 L 756.00 846.60 L 754.40 847.00 L 752.70 847.00 L 748.80 845.70 L 746.30 844.00 L 743.80 841.70 L 741.10 838.70 L 736.60 831.60 L 734.60 827.20 L 733.00 822.60 L 731.90 818.30 L 731.30 814.40 L 731.10 810.30 L 731.30 806.90 L 732.00 804.00 L 732.80 802.00 L 733.80 800.40 L 735.10 799.20 L 736.50 798.40 L 739.80 798.00 L 743.70 799.30 L 746.10 800.90 L 748.70 803.20 L 751.40 806.20 L 753.70 809.60 L 757.90 817.80 Z" fill="none" group-id="5,45" node-id="530" stroke="#636689" stroke-linecap="butt" stroke-width="2" target-height="49" target-width="30.300049" target-x="731.1" target-y="798"></path><path d="M 425.40 332.40 L 342.20 352.60 L 324.30 405.70 L 356.50 431.80 L 447.50 440.60 L 445.60 385.00 L 444.10 359.30 L 443.90 358.70 L 438.60 351.50 L 425.40 332.40 Z" fill="#f6bebd" fill-rule="nonzero" group-id="6,46" id="路径_416" node-id="130" stroke="#636689" stroke-linecap="butt" stroke-width="2" target-height="108.20001" target-width="123.20001" target-x="324.3" target-y="332.4"></path><path d="M 340.20 368.70 L 320.50 380.00 L 309.90 386.70 L 300.30 393.50 L 296.30 396.90 L 288.70 405.40 L 282.40 413.70 L 280.60 416.90 L 279.50 419.80 L 279.00 422.10 L 278.90 424.40 L 279.20 426.70 L 280.00 429.00 L 281.30 431.30 L 282.80 433.10 L 284.50 434.50 L 286.50 435.70 L 288.70 436.40 L 293.60 436.80 L 296.40 436.40 L 301.90 434.40 L 307.90 430.50 L 314.70 424.70 L 330.60 409.20 L 344.50 394.80" fill="#f8c0bf" fill-rule="nonzero" group-id="6,47" id="路径_419" node-id="131" stroke="#636689" stroke-linecap="butt" stroke-width="2" target-height="68.099976" target-width="65.600006" target-x="278.9" target-y="368.7"></path><path d="M 336.20 357.70 L 316.50 369.00 L 305.90 375.70 L 296.30 382.50 L 292.30 385.90 L 284.70 394.40 L 278.40 402.70 L 276.60 405.90 L 275.50 408.80 L 274.90 411.10 L 274.90 413.40 L 275.20 415.70 L 276.00 418.00 L 277.30 420.30 L 278.80 422.10 L 280.50 423.50 L 282.50 424.70 L 284.70 425.40 L 289.60 425.80 L 292.40 425.40 L 297.90 423.40 L 303.90 419.50 L 310.70 413.70 L 326.60 398.20 L 340.50 383.80" fill="#f8c0bf" fill-rule="nonzero" group-id="6,48" id="路径_417" node-id="132" stroke="#636689" stroke-linecap="butt" stroke-width="2" target-height="68.099976" target-width="65.600006" target-x="274.9" target-y="357.7"></path><path d="M 404.00 431.90 L 406.60 439.60 L 409.70 446.50 L 411.70 450.10 L 415.70 455.30 L 419.30 458.30 L 421.30 459.30 L 423.50 459.70 L 425.70 459.70 L 429.10 459.00 L 432.00 457.90 L 434.50 456.50 L 438.80 452.90 L 442.50 448.20 L 444.80 443.80 L 446.00 421.40 Z" fill="#171948" fill-rule="nonzero" group-id="6,49" id="路径_426" node-id="133" stroke="none" target-height="38.30002" target-width="42" target-x="404" target-y="421.4"></path><path d="M 554.70 248.00 L 548.00 255.40 L 541.80 263.10 L 535.50 271.80 L 530.40 280.70 L 524.70 294.30 L 521.60 302.70 L 518.50 312.60 L 515.00 326.50 L 512.50 341.50 L 511.90 349.00 L 511.80 356.60 L 426.40 333.20 L 430.20 344.10 L 433.70 355.70 L 437.10 369.30 L 439.60 383.70 L 440.20 390.80 L 440.20 397.40 L 439.80 426.70 L 439.30 433.50 L 438.40 439.60 L 437.40 443.60 L 436.10 447.30 L 434.40 450.80 L 432.30 454.00 L 429.60 457.00 L 426.40 459.70 L 480.80 457.90 L 551.80 465.10 L 563.10 471.70 L 571.80 475.50 L 576.30 477.10 L 581.00 478.10 L 585.30 478.50 L 588.20 478.30 L 590.70 477.70 L 593.10 476.80 L 603.70 470.90 L 618.00 462.80 L 634.00 453.10 L 649.70 442.50 L 656.90 437.00 L 663.00 431.80 L 737.30 431.80 L 711.90 379.70 L 702.80 362.10 L 703.30 358.60 L 703.20 353.40 L 702.10 345.80 L 699.50 336.50 L 694.80 326.20 L 684.50 308.80 L 675.00 294.80 L 663.90 280.50 L 658.00 273.80 L 651.90 267.50 L 645.70 261.90 L 637.70 255.50 L 629.70 250.00 L 621.50 245.10 L 614.00 241.20 L 604.20 237.10 L 595.90 234.90 L 592.40 234.50 L 589.50 234.60 L 590.40 241.60 L 590.60 245.50 L 590.20 253.70 L 589.50 257.60 L 588.40 261.20 L 586.80 264.30 L 579.60 276.10 L 577.20 279.10 L 574.70 281.80 L 572.80 283.30 L 568.60 285.30 L 566.40 285.80 L 564.00 285.80 L 561.30 285.20 L 559.30 284.30 L 557.60 282.90 L 556.20 281.10 L 554.30 276.60 L 553.70 273.80 L 553.10 269.60 L 553.10 260.70 L 554.70 248.00 Z" fill="#b3c9f7" fill-rule="nonzero" group-id="6,50" id="路径_421" node-id="134" stroke="#636689" stroke-linecap="butt" stroke-width="2" target-height="244" target-width="310.9" target-x="426.4" target-y="234.5"></path><g clip-path="url(#clip-path-7)" group-id="6,51" id="蒙版组_44" node-id="135"><path d="M 548.60 461.20 L 572.90 485.50 L 598.70 479.40 L 598.40 472.40 L 597.00 461.80 L 594.90 454.60 L 593.50 451.50 L 588.40 444.30 L 579.40 433.70 L 567.90 421.70 L 561.70 415.80 L 555.40 410.30 L 549.00 405.40 L 543.20 401.50 L 539.20 399.30 L 535.80 398.00 L 532.80 397.20 L 531.40 397.30 L 530.40 397.70 L 529.60 398.40 L 529.00 399.50 L 528.40 403.50 L 529.40 411.20 L 530.90 416.80 L 534.80 428.70 L 539.40 440.60 L 548.60 461.20 Z" fill="#171948" fill-rule="nonzero" group-id="6,51,80" id="路径_422" node-id="136" stroke="#636689" stroke-linecap="butt" stroke-width="2" target-height="88.29999" target-width="70.29999" target-x="528.4" target-y="397.2"></path><path d="M 532.80 397.20 L 637.20 359.60 L 604.40 298.90" fill="none" group-id="6,51,81" id="路径_423" node-id="137" stroke="#636689" stroke-linecap="butt" stroke-width="2" target-height="98.30002" target-width="104.400024" target-x="532.8" target-y="298.9"></path><path d="M 544.60 277.30 L 543.90 279.10 L 543.10 283.20 L 541.30 294.00 L 534.80 298.70 L 529.50 304.00 L 527.20 307.30 L 525.40 310.90 L 524.60 313.40 L 524.20 316.10 L 524.30 318.90 L 524.90 322.00 L 527.10 327.70 L 528.70 330.30 L 532.80 334.90 L 538.00 338.30 L 538.00 394.50" fill="none" group-id="6,51,82" id="路径_424" node-id="138" stroke="#636689" stroke-linecap="butt" stroke-width="2" target-height="117.20001" target-width="20.399963" target-x="524.2" target-y="277.3"></path></g><path d="M 388.10 529.20 L 395.70 535.40 L 414.50 551.40 L 403.20 566.20 L 378.30 558.60 Z" fill="#131648" fill-rule="nonzero" group-id="6,52,83" id="路径_410" node-id="140" stroke="#636689" stroke-linecap="butt" stroke-width="2" target-height="37" target-width="36.200012" target-x="378.3" target-y="529.2"></path><path d="M 187.50 847.50 L 144.10 847.50 L 147.70 841.60 L 150.00 836.90 L 152.20 831.60 L 155.50 820.70 L 156.90 810.60 L 157.00 805.40 L 156.60 799.90 L 155.70 794.20 L 154.60 790.10 L 151.10 781.60 L 148.60 777.10 L 145.20 772.10 L 141.50 767.70 L 137.50 763.90 L 133.20 760.60 L 128.60 757.70 L 123.80 755.30 L 118.90 753.30 L 113.80 751.90 L 108.60 750.90 L 103.30 750.40 L 98.00 750.30 L 92.60 750.70 L 87.20 751.60 L 82.00 752.90 L 76.80 754.60 L 71.70 756.80 L 66.80 759.40 L 62.10 762.50 L 57.70 765.90 L 53.40 769.80 L 50.20 773.40 L 47.50 777.30 L 45.20 781.30 L 43.40 785.50 L 40.90 794.50 L 39.80 803.90 L 39.70 810.30 L 40.10 816.70 L 41.00 823.10 L 43.90 835.40 L 45.70 841.10 L 50.10 851.50 L 54.90 860.00 L 59.40 865.40 L 70.40 875.10 L 76.40 879.70 L 82.90 883.90 L 87.40 886.40 L 92.20 888.60 L 97.30 890.40 L 102.50 891.80 L 108.10 892.70 L 114.00 893.00 L 398.70 893.00 L 397.30 889.30 L 394.50 883.80 L 392.30 880.70 L 389.60 877.80 L 386.30 875.10 L 381.10 872.20 L 377.90 871.20 L 374.60 870.60 L 370.80 870.30 L 366.50 870.60 L 368.50 861.00 L 370.60 845.20 L 371.40 835.00 L 371.90 824.20 L 371.80 812.00 L 371.50 803.70 L 369.70 786.10 L 368.20 777.20 L 366.30 768.10 L 363.80 758.90 L 368.00 721.10 L 369.10 707.00 L 369.20 696.10 L 379.20 762.40 L 400.20 893.00 L 465.70 893.00 L 463.30 888.90 L 458.70 882.80 L 455.40 879.30 L 451.70 876.00 L 447.40 872.90 L 440.70 869.50 L 436.90 868.20 L 433.00 867.40 L 428.80 866.90 L 424.20 866.90 L 421.90 838.20 L 415.80 771.00 L 386.30 458.20 L 402.10 454.30 L 417.80 449.80 L 433.30 444.80 L 436.80 443.20 L 439.60 441.30 L 441.90 439.20 L 443.70 436.70 L 445.10 434.00 L 446.00 431.20 L 446.50 428.20 L 446.40 422.30 L 445.80 419.40 L 443.80 414.20 L 442.40 411.80 L 438.90 408.10 L 436.90 406.90 L 434.80 406.10 L 432.50 405.80 L 371.30 407.20 L 368.50 402.40 L 366.00 399.00 L 363.10 395.50 L 356.50 389.50 L 349.90 385.30 L 346.20 383.70 L 342.20 382.40 L 337.70 381.60 L 330.80 381.40 L 326.90 381.80 L 322.80 382.70 L 317.40 384.30 L 312.90 386.20 L 309.20 388.20 L 305.70 390.70 L 302.80 393.20 L 298.40 398.60 L 295.50 404.20 L 294.00 408.50 L 293.20 412.50 L 292.80 416.40 L 292.50 430.50 L 291.90 439.80 L 290.30 450.90 L 289.10 456.80 L 287.50 462.70 L 285.40 468.50 L 280.80 478.50 L 279.10 483.20 L 277.00 493.00 L 276.30 502.40 L 276.70 511.30 L 278.00 518.60 L 279.80 523.20 L 273.80 533.30 L 264.30 547.60 L 252.10 564.60 L 215.80 613.00 L 202.90 632.30 L 193.40 649.40 L 189.20 658.30 L 185.30 667.70 L 181.70 677.60 L 177.60 691.00 L 174.30 703.70 L 171.70 715.70 L 169.60 727.90 L 168.10 739.80 L 167.30 751.40 L 167.10 763.00 L 167.40 774.70 L 168.40 786.50 L 170.40 800.30 L 174.20 815.60 L 179.40 830.60 L 181.80 836.30 L 187.50 847.50 Z" fill="#f7b863" fill-rule="nonzero" group-id="6,52,84" id="路径_402" node-id="141" stroke="#636689" stroke-linecap="butt" stroke-width="2" target-height="511.6" target-width="426" target-x="39.7" target-y="381.4"></path><g clip-path="url(#clip-path-8)" group-id="6,52,85" id="蒙版组_43" node-id="142"><path d="M 418.70 404.80 L 421.40 409.50 L 423.60 412.60 L 426.20 415.90 L 431.90 421.20 L 437.40 424.40 L 440.50 425.50 L 443.80 426.10 L 447.50 426.10 L 448.70 425.80 L 449.50 425.20 L 450.00 424.20 L 450.30 422.60 L 449.90 418.70 L 448.90 415.50 L 438.30 398.70 Z" fill="#131648" fill-rule="nonzero" group-id="6,52,85,113" id="路径_403" node-id="143" stroke="#636689" stroke-linecap="butt" stroke-width="2" target-height="27.399994" target-width="31.599976" target-x="418.7" target-y="398.7"></path><path d="M 389.40 480.00 L 384.60 480.00 L 377.30 479.20 L 372.80 478.30 L 368.30 476.90 L 363.50 474.80 L 360.40 473.10 L 354.20 468.50 L 387.40 457.90 Z" fill="#131648" fill-rule="nonzero" group-id="6,52,85,114" id="路径_404" node-id="144" stroke="#636689" stroke-linecap="butt" stroke-width="2" target-height="22.100006" target-width="35.19998" target-x="354.2" target-y="457.9"></path><path d="M 333.10 415.70 L 338.70 427.30 L 343.20 439.40 L 345.30 446.30 L 347.00 453.70 L 348.20 463.80 L 348.30 468.80 L 347.80 478.10 L 346.80 487.20 L 344.40 498.70 L 342.70 504.00 L 340.70 509.10 L 338.30 513.80 L 335.50 518.00 L 330.60 523.60 L 324.60 528.00 L 321.10 529.70 L 317.60 530.90 L 310.70 531.90 L 304.30 531.50 L 299.80 530.50 L 296.10 529.30 L 292.60 527.90 L 288.20 525.60" fill="none" group-id="6,52,85,115" id="路径_405" node-id="145" stroke="#636689" stroke-linecap="butt" stroke-width="2" target-height="116.20001" target-width="60.099976" target-x="288.2" target-y="415.7"></path><path d="M 275.80 506.20 L 277.80 509.70 L 283.80 517.00 L 293.20 526.30 L 301.20 532.60 L 305.80 535.70 L 315.80 541.10 L 321.30 543.50 L 335.20 548.60 L 348.20 553.00 L 356.90 555.50 L 365.20 557.50 L 373.10 559.10 L 384.90 560.20 L 390.50 560.20 L 399.60 559.70 L 402.10 560.00 L 403.80 560.60 L 405.20 561.60 L 406.00 562.90 L 406.50 566.00 L 405.70 569.70 L 404.50 572.60 L 403.00 575.30 L 399.00 581.40 L 386.30 579.50 L 365.20 575.10 L 348.50 570.40 L 340.00 567.50 L 331.70 564.20 L 323.90 560.50 L 318.80 557.70 L 310.10 551.70 L 300.10 543.30 L 292.80 536.70 L 286.50 530.40 L 279.00 521.70 L 275.80 517.10 Z" fill="#ffffff" fill-rule="nonzero" group-id="6,52,85,116" id="路径_406" node-id="146" stroke="#636689" stroke-linecap="butt" stroke-width="2" target-height="75.20001" target-width="130.70001" target-x="275.8" target-y="506.2"></path><path d="M 227.80 715.70 L 234.80 711.50 L 246.40 705.60 L 259.30 700.70 L 271.00 697.50 L 277.20 696.40 L 283.60 695.70 L 290.20 695.40 L 300.00 696.10 L 310.10 698.30 L 315.00 700.00 L 319.80 702.20 L 324.70 704.90 L 329.60 708.10 L 334.10 711.70 L 338.60 716.00 L 343.00 721.00 L 347.40 726.80 L 351.30 732.80 L 355.10 739.60 L 358.70 747.40 L 362.30 756.40" fill="none" group-id="6,52,85,117" id="路径_407" node-id="147" stroke="#636689" stroke-linecap="butt" stroke-width="2" target-height="61" target-width="134.49998" target-x="227.8" target-y="695.4"></path><path d="M 355.60 608.80 L 370.60 708.60" fill="none" group-id="6,52,85,118" id="路径_408" node-id="148" stroke="#636689" stroke-linecap="butt" stroke-width="2" target-height="99.79999" target-width="15" target-x="355.6" target-y="608.8"></path></g><path d="M 440.00 568.00 L 439.80 571.20 L 439.20 574.20 L 438.20 577.00 L 436.90 579.60 L 433.30 584.30 L 428.60 587.90 L 426.00 589.20 L 420.20 590.80 L 417.00 591.00 L 410.80 590.20 L 408.00 589.20 L 402.90 586.20 L 398.80 582.10 L 397.10 579.60 L 395.80 577.00 L 394.80 574.20 L 394.20 571.20 L 394.00 568.00 L 394.80 561.80 L 395.80 559.00 L 398.80 553.90 L 402.90 549.80 L 408.00 546.80 L 413.80 545.20 L 417.00 545.00 L 420.20 545.20 L 426.00 546.80 L 428.60 548.10 L 433.30 551.70 L 436.90 556.40 L 438.20 559.00 L 439.80 564.80 L 440.00 568.00 Z" fill="#ffffff" fill-rule="nonzero" group-id="6,52,86" node-id="605" stroke="none" target-height="46" target-width="46" target-x="394" target-y="545"></path><path d="M 439.00 568.00 L 438.80 571.00 L 437.30 576.60 L 436.00 579.10 L 433.80 582.20 L 431.20 584.80 L 428.10 587.00 L 425.60 588.30 L 420.00 589.80 L 417.00 590.00 L 414.00 589.80 L 408.40 588.30 L 405.90 587.00 L 402.80 584.80 L 400.20 582.20 L 398.00 579.10 L 395.80 573.90 L 395.20 571.00 L 395.00 568.00 L 395.80 562.10 L 398.00 556.90 L 400.20 553.80 L 402.80 551.20 L 405.90 549.00 L 408.40 547.70 L 414.00 546.20 L 417.00 546.00 L 420.00 546.20 L 425.60 547.70 L 428.10 549.00 L 431.20 551.20 L 433.80 553.80 L 436.00 556.90 L 437.30 559.40 L 438.80 565.00 L 439.00 568.00 Z" fill="none" group-id="6,52,86" node-id="607" stroke="#636689" stroke-linecap="butt" stroke-width="2" target-height="44" target-width="44" target-x="395" target-y="546"></path><path d="M 533.10 396.80 L 520.90 400.70 L 499.00 409.20 L 489.90 413.50 L 485.30 416.40 L 480.90 419.90 L 476.90 423.80 L 473.40 427.90 L 469.80 433.50 L 467.60 438.70 L 467.30 440.90 L 467.30 442.80 L 469.40 450.30 L 470.90 453.80 L 474.20 459.00 L 477.60 462.00 L 479.30 465.40 L 482.60 470.00 L 487.10 474.50 L 489.70 476.30 L 492.40 477.30 L 494.20 477.60 L 496.20 477.40 L 498.10 476.80 L 503.40 481.50 L 505.20 482.90 L 507.20 483.80 L 509.90 484.00 L 511.30 483.40 L 513.80 485.70 L 516.10 486.90 L 521.90 488.30 L 528.00 488.10 L 532.80 490.70 L 538.00 492.30 L 541.10 492.60 L 544.10 492.50 L 547.30 491.70 L 550.00 490.60 L 553.20 488.40 L 554.90 485.60 L 555.10 481.70 L 554.30 477.60 L 552.50 475.40 L 548.50 473.20 L 542.90 471.80 L 546.20 468.70 L 551.20 465.30 L 554.20 464.00 L 593.60 451.70 L 579.80 433.90 L 572.40 425.30 L 568.70 421.60 L 551.50 406.80 L 547.70 404.00 L 543.40 401.30 L 538.70 399.00 L 533.10 396.80 Z" fill="#f4bbbb" fill-rule="nonzero" group-id="6,53" id="路径_427" node-id="152" stroke="#636689" stroke-linecap="butt" stroke-width="2" target-height="95.80002" target-width="126.29999" target-x="467.3" target-y="396.8"></path><g clip-path="url(#clip-path-9)" group-id="6,54" id="蒙版组_45" node-id="153"><path d="M 494.90 426.10 L 491.00 429.10 L 488.40 431.80 L 485.90 435.00 L 483.20 439.40 L 481.70 442.50 L 479.30 450.50 L 478.60 454.90 L 478.40 459.80 L 478.60 465.50" fill="none" group-id="6,54,87" id="路径_428" node-id="154" stroke="#636689" stroke-linecap="butt" stroke-width="2" target-height="39.399994" target-width="16.5" target-x="478.4" target-y="426.1"></path><path d="M 498.50 477.70 L 496.00 472.90 L 493.40 465.50 L 492.50 461.10 L 492.30 458.10 L 493.00 452.10 L 495.20 446.60 L 499.30 441.00 L 504.60 436.30 L 508.60 433.70" fill="none" group-id="6,54,88" id="路径_429" node-id="155" stroke="#636689" stroke-linecap="butt" stroke-width="2" target-height="44" target-width="16.300018" target-x="492.3" target-y="433.7"></path><path d="M 512.80 485.60 L 510.40 481.90 L 508.60 478.00 L 507.30 473.90 L 506.50 469.60 L 506.30 465.30 L 506.60 460.90 L 507.20 458.10 L 509.40 453.00 L 511.70 449.60 L 514.20 446.70 L 519.60 442.00 L 525.80 438.10" fill="none" group-id="6,54,89" id="路径_430" node-id="156" stroke="#636689" stroke-linecap="butt" stroke-width="2" target-height="47.5" target-width="19.5" target-x="506.3" target-y="438.1"></path><path d="M 528.70 489.10 L 526.20 486.00 L 524.60 483.30 L 523.30 480.20 L 522.10 476.20 L 521.40 470.10 L 521.50 466.40 L 522.00 463.60 L 523.00 461.00 L 524.40 458.70 L 526.10 456.60 L 530.10 453.00 L 536.70 449.20 L 544.40 446.40" fill="none" group-id="6,54,90" id="路径_431" node-id="157" stroke="#636689" stroke-linecap="butt" stroke-width="2" target-height="42.700012" target-width="23" target-x="521.4" target-y="446.4"></path></g><path d="M 346.20 347.70 L 324.40 360.50 L 313.00 368.00 L 303.00 375.50 L 298.90 379.10 L 296.40 382.00 L 288.00 392.70 L 285.00 397.40 L 284.00 401.10 L 284.00 403.00 L 285.20 407.40 L 286.50 409.70 L 288.00 411.50 L 289.80 413.00 L 291.90 414.20 L 296.60 415.50 L 299.30 415.60 L 305.00 414.50 L 307.80 413.40 L 313.90 409.50 L 320.70 403.60 L 336.60 388.20 L 350.60 373.80" fill="#f8c0bf" fill-rule="nonzero" group-id="6,55" id="路径_418" node-id="158" stroke="#636689" stroke-linecap="butt" stroke-width="2" target-height="67.899994" target-width="66.600006" target-x="284" target-y="347.7"></path><path d="M 342.10 355.20 L 332.90 361.80 L 319.50 372.80 L 310.80 381.50 L 307.30 385.90 L 303.70 391.70 L 302.70 394.30 L 302.20 398.10 L 303.20 401.40 L 306.70 406.10 L 310.30 408.80 L 313.00 409.70 L 315.80 410.10 L 318.80 409.90 L 324.70 408.10 L 327.90 406.60 L 332.40 403.80 L 336.90 400.40 L 363.40 378.40" fill="#f6bebd" fill-rule="nonzero" group-id="6,56" id="路径_420" node-id="159" stroke="#636689" stroke-linecap="butt" stroke-width="2" target-height="54.899994" target-width="61.19998" target-x="302.2" target-y="355.2"></path><path d="M 703.10 361.30 L 698.80 375.50 L 696.40 382.10 L 689.70 397.50 L 685.50 405.60 L 682.30 410.80 L 675.20 420.60 L 671.20 425.00 L 666.90 429.00 L 662.40 432.40" fill="none" group-id="6" id="路径_455" node-id="160" stroke="#636689" stroke-linecap="butt" stroke-width="2" target-height="71.100006" target-width="40.69995" target-x="662.4" target-y="361.3"></path><path d="M 426.20 332.90 L 415.40 331.00 L 398.40 328.90 L 386.00 328.50 L 376.50 329.40 L 370.50 331.10 L 362.70 334.40 L 356.90 337.40 L 350.70 341.60 L 348.80 343.50 L 347.30 345.70 L 346.50 347.90 L 346.20 350.20 L 346.40 352.00 L 347.10 353.70 L 348.20 355.40 L 351.30 358.30 L 355.90 360.70 L 361.50 362.10 L 367.90 362.40 L 383.10 360.20 L 388.90 359.80 L 390.90 360.10 L 392.70 360.80 L 394.20 361.90 L 395.30 363.50 L 396.60 366.60 L 397.50 369.80 L 397.90 373.20 L 397.90 376.20 L 397.60 379.10 L 396.00 384.60 L 395.50 389.60 L 395.30 400.90" fill="#f6bebd" fill-rule="nonzero" group-id="6,57" id="路径_415" node-id="161" stroke="#636689" stroke-linecap="butt" stroke-width="2" target-height="72.399994" target-width="80" target-x="346.2" target-y="328.5"></path></g></svg>